<svg width="207" height="206" fill="none" xmlns="http://www.w3.org/2000/svg"><path fill-rule="evenodd" clip-rule="evenodd" d="M31.76 158.7a6.33 6.33 0 0 0-3.922 5.86v18.531H9.118v-18.656a6.32 6.32 0 0 1 6.32-6.32H31.76v.585z" fill="#26273C"/><path fill-rule="evenodd" clip-rule="evenodd" d="M29.292 161.515c-1.08 2.058-.78 2.405-.687 8.684.01 1.077.064 12.805-.022 13.138a.79.79 0 0 1-.24.355c-.38.27 1.269.183-19.222.183a.788.788 0 0 1-.774-.661c-.014-.171-.024-18.847.009-19.324a7.077 7.077 0 0 1 4.414-5.993c1.789-.686 2.07-.506 11.162-.403 8.538.122 7.88.086 8.083.184a.487.487 0 0 1 .243.437c-.007.663-.004.549-.013.666a.493.493 0 0 1-.293.37l-.007-.007a5.774 5.774 0 0 0-2.653 2.371zm-5.752-2.9v.122l-8.102.094a5.597 5.597 0 0 0-5.42 4.485c-.142.755-.114-.816-.114 18.988h17.153c0-18.178-.01-18.953.701-20.407a6.936 6.936 0 0 1 3.037-3.286l-7.255.004zM131.713 64.067l.288.218c.137.73.059-.074-.262 2.51-.266 1.725-.427 4.715-.449 4.974-.343 6.1.56 12.704 6.118 15.29 1.536.654 1.889.448 2.297.87.248.382.147.169.189 2.683 0 3.35.24 9.331.231 9.614a.571.571 0 0 1-.525.511c-.772.074-1.538.2-2.293.377l-.374-.078-.214-.305v-.005l.072-.364.313-.222c.618-.148 1.189-.333 1.836-.46 0-.08-.657-5.726-.657-10.628-3.064-.807-5.507-2.823-7.053-6.233a17.914 17.914 0 0 1-1.457-5.832 30.409 30.409 0 0 1 .228-7.835c.258-1.6.632-3.178 1.118-4.724l.234-.296.354-.062.006-.003zM157.098 67.947a5.168 5.168 0 0 1 3.732 4.678c.009.24.002.48-.022.719a5.117 5.117 0 0 1-.734 2.149c-1.499 2.204-3.611 2.945-6.237 3.337a57.406 57.406 0 0 1-3.008 8.185c.083 3.826.02 6.413.256 11.204.695.084 1.355.2 2.035.334.833.167.629.097 1.023.356l.089.363a8.692 8.692 0 0 0-.206.316 1.117 1.117 0 0 1-.775.033c-2.833-.387-2.744-.132-3.121-.393-.231-.219-.231-.096-.607-4.54-.291-4.317-.227-5.003-.285-7.514a1.234 1.234 0 0 1 .159-.868 51.035 51.035 0 0 0 3.004-8.323c.206-.866.755-.592 2.232-.898a6.919 6.919 0 0 0 3.643-1.842 3.638 3.638 0 0 0 .93-2.84 3.64 3.64 0 0 0-1.505-2.581 5.148 5.148 0 0 0-2.159-.967 12.448 12.448 0 0 0-1.965-.264l-.343-.16-.137-.331v-.006l.148-.33.343-.151c1.181-.093 2.368.02 3.51.334zM149.46 86.23l-.025.032-.009.008.047-.05-.013.01zm.069-.062c-.079.069-.025.022.053-.04l-.053.04z" fill="#26273C"/><path fill-rule="evenodd" clip-rule="evenodd" d="m136.349 67.327.25.218.088.381c0 2.627-.71 2.957-.556 7.941 2.19-.018 1.721-.116 2.333.09l.186.305v.005l-.107.343-.336.212c-.886.247-1.786.44-2.695.579a.808.808 0 0 1-.591-.137.848.848 0 0 1-.246-.308c-.3-.914-.206-5.518.388-7.684 0-.057.335-.879.335-.884.028-.056.316-.659.351-.717l.274-.28.323-.058.003-.006zM145.31 77.25c.216.33.269.266.382 1.318a4.117 4.117 0 0 1-.872 2.932 3.302 3.302 0 0 1-1.858 1.26 3.384 3.384 0 0 1-3.378-1.137 3.246 3.246 0 0 1-.458-.91c0-.496-.069-.303.164-.672 1.127.275.328.063 1.444.676.379.26.807.437 1.258.522a1.82 1.82 0 0 0 1.757-.997 6.134 6.134 0 0 0 .783-2.427c.009-.156-.018-.048.142-.489l.297-.185.339.109zM144.938 63.566c.392.27.74.602 1.029.98.191.204.312.463.347.74l-.123.319-.007.003-.322.098a1.567 1.567 0 0 1-.635-.293 8.298 8.298 0 0 0-1.277-.584 2.86 2.86 0 0 0-2.218-.157 1.873 1.873 0 0 0-.496.281s-.459.24-.572.306c-.422.215.074.093-.938.309-.137-.649-.233-.659.085-1.284.175-.364.464-.662.823-.848.161-.095.329-.178.502-.246a4.412 4.412 0 0 1 3.802.376z" fill="#26273C"/><path d="M142.843 71.895c.801 0 1.451-.848 1.451-1.895 0-1.047-.65-1.896-1.451-1.896s-1.45.849-1.45 1.896.649 1.895 1.45 1.895z" fill="#26273C"/><path fill-rule="evenodd" clip-rule="evenodd" d="M156.63 68.72c1.018-5.773 1.703-13.41-4.294-16.717-2.38-1.314-5.053-1.658-7.616-2.447-1.803-3.694-5.661-9.455-9.622-10.526a11.5 11.5 0 0 0-12.388 4.803c-3.406 5.052-2.607 12.335 3.331 15 4.617 2.07 11.289 1.406 16.29.422 1.539-.302 2.992.95 4.49 1.407.787 3.802 3.087 6.394 6.832 7.333 1.065.267 2.977.726 2.977.726z" fill="#26273C"/><path fill-rule="evenodd" clip-rule="evenodd" d="M75.345 24.54a33.085 33.085 0 0 1 19.397 22.081 32.91 32.91 0 0 1-4.666 28.514A32.491 32.491 0 0 1 78.56 85.193a33.072 33.072 0 0 1-7.136 2.774 33.558 33.558 0 0 1-26.683-4.237c-24.484-16.424-18.105-51.705 7.455-60.023a33.094 33.094 0 0 1 23.149.834zm-17.716.462A30.93 30.93 0 1 0 88.86 72.31a31.406 31.406 0 0 0 4.168-25.67l-.013.004C88.292 31.3 72.717 22.137 57.629 25.002zm37.109 21.62c-.146-.474-.133-.437 0 0z" fill="#00B191"/><path fill-rule="evenodd" clip-rule="evenodd" d="M63.062 36.192c12.77.166 22.383 11.45 19.454 23.674C78.934 74.112 60.8 78.74 49.614 69.402c-13.573-11.72-4.977-33.244 13.448-33.21zm-5.569 3.2a17.886 17.886 0 0 0-6.45 3.511c-11.5 9.831-5.428 28.476 10.588 30.247v.006a18.31 18.31 0 0 0 17.592-10.173c6.272-13.433-6.697-27.984-21.73-23.591z" fill="#00B191"/><path fill-rule="evenodd" clip-rule="evenodd" d="m70.838 59.523-.07.681c-2.778 3.37-7.316 4.027-11.413 2.808a11.534 11.534 0 0 1-4.107-2.382l-.023-.024-.106-.683c1.338-.196-.394-.158 3.562.683 2.26.625 4.633.725 6.937.293a12.835 12.835 0 0 0 4.534-1.436l.686.06zM57.98 50.961c.688 1.418.308.47.426 2.806.025.32.075.046-.235 1.117l-.805.449h-.009l-.887-.258-.45-.806c-.06-.176-.05-2.342-.053-2.342l.309-.869.832-.403h.009l.864.306zM69.882 50.725c.688 1.417.308.47.426 2.806.025.32.076.046-.235 1.116l-.806.45h-.008l-.888-.258-.449-.807c-.078-.233-.025-1.73-.052-2.34l.31-.87.83-.404h.01l.862.307z" fill="#00B191"/><path fill-rule="evenodd" clip-rule="evenodd" d="M141.541 139.032s-.082 6.045-.234 8.796c6.731 1.198 13.367 2.825 20.085 4.089 1.921.361 3.814 1.349 5.755 1.091 10.342-1.384 20.836-1.408 31.258-1.886a2.832 2.832 0 0 0 2.62-2.159c.097-.394.109-.804.034-1.203-1.409-7.539-3.302-14.947-6.917-21.814-7.081-13.448-20.773-23.69-35.894-26.148a1.207 1.207 0 0 0-1.15.465c-3.161 4.16-7.837 8.302-13.048 9.243-3.087.557-8.244.099-9.689-3.275a7.539 7.539 0 0 1-.268-4.381 1.199 1.199 0 0 0-.364-1.106 1.219 1.219 0 0 0-.529-.287 1.215 1.215 0 0 0-.602.005c-8.508 2.313-16.536 5.742-23.715 11.024-2.553 1.878-5.385 3.938-7.446 6.371a6.662 6.662 0 0 1 2.346 6.021c1.427 1.514 2.145 3.511 1.323 5.516 3.249 5.323-3.431 9.823-7.448 12.118 3.445 6.662 11.632 19.046 11.765 19.381.038.098 1.084 21.585 1.119 21.613a.056.056 0 0 0 .025.014.067.067 0 0 0 .028.003c6.188-.627 12.438.133 18.653.008 8.981-.181 18.269-.543 27.265-.56a.071.071 0 0 0 .051-.014.072.072 0 0 0 .026-.047.07.07 0 0 0-.015-.05.066.066 0 0 0-.046-.026c-6.19-1.643-14.795-4.407-19.678-8.352-4.597 1.772-10.121.93-14.589-.909-3.249-1.337-5.713-4.84-.765-5.965-2.161-1.886-4.553-5.546-.364-6.502-2.413-2.002-5.978-7.265-.673-8.196-.617-3.567-1.516-7.213-2.483-10.71-6.924-.646-6.46-5.11-3.911-6.175 3.719-1.554 9.104-.622 13.098-.637-.357-2.026-.692-4.07-.898-6.118-.068-.691-.284-1.759.193-2.361 1.015-1.283 3.318-1.504 4.765-1.921 4.121-1.181 8.672-3.176 13.051-2.757 1.827.175 3.584 1.561 1.89 3.272-.998 1.007-2.644 1.352-3.949 1.754-1.36.418-2.681.96-4.042 1.379-2.105.65-4.244 1.079-6.39 1.57.081 1.583.258 3.16.531 4.722a57.041 57.041 0 0 1 10.017.411c1.403.061 2.79.314 4.124.752 1.425.601 1.997 2.341.405 3.156-1.56.798-3.585.787-5.32.785z" fill="#7955C0"/><path fill-rule="evenodd" clip-rule="evenodd" d="M141.33 148.872a31.7 31.7 0 0 1 5.754.461c7.242 1.174 18.888 4.125 21.115 4.604 0-.653-.048-.411.127-.887l.328-.17h.007l.347.124c.245.47.157.214.237.898.054.678.148 1.03-.319 1.246-.191.053-.069.058-1.403-.122-7.924-1.109-13.618-3.107-22.009-4.318-.87-.125-3.29-.59-4.933-.839-.149-.022-.064.011-.445-.201l-.121-.335v-.005l.165-.315c.442-.172.189-.144 1.15-.141z" fill="#26273C"/><path fill-rule="evenodd" clip-rule="evenodd" d="M169.187 153.747c.282.015 2.245.475 2.711.59a5.463 5.463 0 0 1 1.536.558c.326.127.621.322.866.572l.095.325v.005l-.241.24-.445.093c-1.776 0-1.75-.198-4.294-.721a2.37 2.37 0 0 1-1.185-.464c-.219-.137-.101-.013-.566-.667.651-.461.506-.39.758-.444a3.03 3.03 0 0 1 .765-.087zM198.686 152.872c.236.459.166.093.279 1.921a29.17 29.17 0 0 1-.367 6.092 24.77 24.77 0 0 1-6.867 13.415c-5.14 5.332-12.493 8.042-19.829 8.401-7.664.343-13.887-1.701-20.913-4.742-4.567-1.984-9.531-4.126-13.256-7.249a23.443 23.443 0 0 1-5.495 1.249c-4.008.383-8.28-.21-11.224-2.882h-.004l-.164-.336.107-.35.335-.168c.402.122.331.084.458.191.379.298.781.566 1.201.802 4.299 2.291 9.758 1.612 14.318-.029 1.659-.621.2.316 7.389 4.097 3.762 1.908 10.814 5.062 15.805 6.472 19.56 5.36 36.069-5.38 37.411-22.606.206-3.919-.172-3.362.124-4.223l.335-.171.357.116zM120.524 154.238c.361.218 1.167.591 1.475.759.291.157.206.121.503.293a10.742 10.742 0 0 0 3.76 1.313c1.238.161 2.493.126 3.72-.106.851-.19.31-.168.992-.161l.274.228.004.005v.357a1.17 1.17 0 0 1-.575.5 6.907 6.907 0 0 1-2.433.809 11.279 11.279 0 0 1-6.282-1.421 4.831 4.831 0 0 1-1.51-1.135 8.946 8.946 0 0 1-.582-.712l-.129-.37.091-.317v-.004l.306-.123.386.085zM121.456 162.088c2.934.466 3.305 1.098 7.12.686a19.303 19.303 0 0 0 2.401-.377l.399.034.252.243v.005l-.022.354c-.271.293-.154.26-1.021.675a7.827 7.827 0 0 1-2.838.76c-1.063.09-2.133.053-3.188-.11a6.213 6.213 0 0 1-3.517-1.38l-.234-.32-.01-.325v-.005l.253-.206.392-.036.013.002zM140.96 143.216h.006l.206.305c.002.238-.076.47-.222.659a11.518 11.518 0 0 1-5.549 4.288c-3.254 1.331-6.662 2.203-10.159 1.836a9.223 9.223 0 0 1-3.384-1.195c-.124-.069-.059-.008-.343-.356v-.351l.262-.229c.411-.014.336-.027.411-.004 1.019.294 2.067.475 3.125.54 2.719.217 5.358-.027 9.465-1.709a17.114 17.114 0 0 0 4.759-2.806c1.064-1.085.497-.678 1.061-1.038l.362.06zM71.529 131.094h.006l.244.274-.007.375a44.013 44.013 0 0 0-2.538 20.359c.292 2.475.94 4.896 1.924 7.186 2.215 5.062 6.194 8.008 11.717 8.771 7.232.998 17.134-2.265 23.173-7.852.714-.663.412-.476.906-.682l.352.137.145.343-.137.357c-7.491 7.852-21.645 12.482-30.917 7.234-10.905-6.209-10.978-25.524-5.515-36.27l.285-.25.362.018z" fill="#26273C"/><path fill-rule="evenodd" clip-rule="evenodd" d="M101.116 134.804v.004l.12.325-.123.363a14.856 14.856 0 0 1-2.029 2.152 14.862 14.862 0 0 1-2.477 1.586c-.243.123-.037.026-.569.282-1.892.856-1.72.573-1.694.817.626 4.247.827 3.809 1.59 8.556.29 2.033.274 1.659.161 2.157l-.3.211h-.007l-.356-.082-.225-.32c-.612-2.363-2.018-6.197-2.539-11.129-.018-.785.535-.829 1.198-1.048.69-.236 1.362-.523 2.01-.859a43.958 43.958 0 0 0 4.439-2.934c.144-.111.045-.063.474-.206l.327.125zM97.908 122.957h.006l.149.322-.098.383a10.642 10.642 0 0 1-2.576 2.857 20.744 20.744 0 0 1-3.966 2.392 5.686 5.686 0 0 1-2.264.646c-.271.06-.554.043-.815-.05l-.222-.242c0-.008.052-.319.054-.327l.274-.282c.018-.007 1.087-.629 1.132-.652a26.746 26.746 0 0 0 3.69-1.938c.856-.561 3.02-2.237 3.748-2.882.241-.215.108-.13.544-.324l.344.097zM99.554 128.327v.005l.151.319-.091.385a11.986 11.986 0 0 1-2.424 2.922 15.284 15.284 0 0 1-3.868 2.458 5.018 5.018 0 0 1-2.348.532 1.47 1.47 0 0 1-.828-.137l-.195-.27.09-.313.304-.251c.275-.106 1.191-.569 1.403-.655a13.054 13.054 0 0 0 3.578-1.915c.495-.373 2.843-2.365 3.517-3.003l.363-.166.348.089zM96.619 117.109v.004l.117.35-.158.353c-.416.244-4.884 5.589-12.207 7.422-4.013 1.011-9.158.697-11.39-2.721a5.676 5.676 0 0 1-.565-1.166c-.027-.08-.013 0 0-.419l.24-.262h.357c.31.267.264.206.307.282.078.023.886 2.158 4.863 2.992 6.107 1.221 12.87-2.972 17.731-6.861l.37-.12.335.146z" fill="#26273C"/><path fill-rule="evenodd" clip-rule="evenodd" d="M79.618 124.884c-4.073-7.536-5.01-10.841-6.28-13.03 1.038-1.235 2.083-2.445 3.209-3.601 4.65.614 9.33 1.083 13.979 1.755.632 3.332 2.338 6.303 3.225 9.546-2.147 2.196-5.031 3.388-7.914 4.251a18.055 18.055 0 0 1-6.06 1.036" fill="#26273C"/><path fill-rule="evenodd" clip-rule="evenodd" d="M76.65 107.462c4.916.641 8.79 1.03 13.112 1.632 1.03.143 1.049.118 1.315.337.287.321.18.358.426 1.312.794 3.065 2.12 5.433 2.92 8.287.117.412.167.516.045.849-.261.363-.577.682-.936.948a14.36 14.36 0 0 1-2.87 1.871 29.516 29.516 0 0 1-9.28 2.637c-.549.041-1.1.038-1.647-.009-.375.033-.156.057-.549-.21-.082-.146-2.576-4.341-4.46-8.35-.667-1.428-1.006-2.484-1.852-4.117a2.246 2.246 0 0 1-.31-.625c-.083-.529.19-.713.56-1.149a63.784 63.784 0 0 1 2.322-2.624c.5-.537.658-.818 1.205-.789zm.16 1.668c-1.407 1.494-2.402 2.699-2.506 2.813.678 1.171 1.79 4.31 5.596 12.399 2.96.022 7.913-1.725 10.2-3.004a13.07 13.07 0 0 0 2.766-2.009c0-.469-2.033-5.021-2.85-7.959v-.007a34.168 34.168 0 0 1-.155-.635c0-.079-13.015-1.636-13.052-1.598z" fill="#26273C"/><path fill-rule="evenodd" clip-rule="evenodd" d="M90.192 120.196c-.38-.315-.226-.063-1.343-1.821-.048-.088-.332-.541-.502-.892-.231-.481-.871-1.853-1.069-2.347-.67-1.547-.664-1.367.054-2.419.247-.374.466-.672.5-.73a8.754 8.754 0 0 1 1.206-1.159l.367-.161.316.055h.006l.145.286c-.055.495.029.263-.5 1.46-.27.485-.57.954-.897 1.404 1.01 2.504 1.181 2.189 2.282 5.617l.01.427-.21.286h-.007l-.358-.006z" fill="#fff"/><path fill-rule="evenodd" clip-rule="evenodd" d="m144.593 122.377.199.293c0 .606-.371.545-3.327 1.389 0 .19-1.89.194-12.115 3.281.022.719.126 3.156.126 6.704 0 2.893.095 2.25-.108 2.813l-.328.173-.348-.127-.184-.349c0-.351-.588-4.02-.73-8.553-.043-1.401-.076-1.304.042-1.601.237-.401.038-.291 3.656-1.357 9.355-2.712 9.685-2.32 9.685-2.438.081-.011 2.44-.331 3.069-.331l.363.103z" fill="#26273C"/><path fill-rule="evenodd" clip-rule="evenodd" d="M136.492 136.352c4.291.06 3.522.1 7.947.1l.366.137.168.329v.006l-.129.347-.348.176c0 .079-4.391.412-8.216.499-13.479.062-14.065.814-18.685.366-.935-.091-1.938-.274-2.019-.285l-.329-.191-.113-.336v-.008l.173-.31c.229-.129.496-.175.755-.131 3.299-.022 12.263-.817 20.43-.699z" fill="#26273C"/><path fill-rule="evenodd" clip-rule="evenodd" d="M140.095 144.575c.085-2.518.343-5.026.473-7.542-4.547.052-9.091.226-13.635.264a64.446 64.446 0 0 0-7.016.266c.787 3.767 1.685 7.461 2.589 11.193 1.523.245 2.979.837 4.544.8 3.315-.077 6.98-1.46 9.846-3.004a16.982 16.982 0 0 0 3.325-1.921" fill="#26273C"/><path fill-rule="evenodd" clip-rule="evenodd" d="M141.254 136.711c.095.251.093.241-.006 1.311-.653 6.961-.747 5.975-.535 6.637-.168.359-.125.321-.306.473a14.506 14.506 0 0 1-2.731 1.663 33.986 33.986 0 0 1-3.807 1.895 24.312 24.312 0 0 1-3.814 1.235 11.32 11.32 0 0 1-6.462-.129c-1.465-.343-1.359-.206-1.679-.504-.157-.21-.053.317-1.358-5.241-.235-.981-.761-3.248-1.195-5.265-.238-1.115-.35-1.27-.092-1.692.278-.327.458-.317.888-.363 1.378-.142 2.52-.185 3.911-.211 17.811-.277 16.818-.469 17.186.191zm-20.371 1.556c.459 2.247 1.724 7.523 2.279 9.798 2.298.445 2.721.925 5.365.618 4.1-.495 7.612-2.436 9.625-3.374.509-.23.995-.506 1.454-.823 0-3.019.125-4.677.18-6.66-2.806.107-16.873.26-18.903.441zM62.338 110.677a.483.483 0 0 1 .404.48c.337 32.649.374 31.273 0 31.644a.76.76 0 0 1-.49.182c-1.763.007-33.205.068-33.578-.028a.805.805 0 0 1-.412-.343c-.159-.348-.103 1.899-.103-31.453a.786.786 0 0 1 .646-.769c2.72-.244 33.454.28 33.533.287zm-32.611 1.266v29.492c17.29 0-25.98.02 31.768.024.077.039-.064 1.231.268-29.809-18.221.338-17.563.293-32.036.293zM72.255 162.662c.7.239.226-.018.885.361l.152.294v.005l-.168.285-.385.195c-1.933.386-.343.235-3.691.324a2.041 2.041 0 0 1-1.138-.125c-.45-.205-.222-.03-.844-.627.592-.618.385-.448.816-.662.35-.166.74-.228 1.125-.181 2.516-.064 2.252-.087 3.248.131zM64.493 173.394c.267-.034.54 0 .79.097a42.267 42.267 0 0 1 5.385 3.242c1.497 1.017 1.857 1.098 1.757 1.81a.783.783 0 0 1-.284.451c-.235.154-.275.154-.744.214-2.92.38-5.797-.211-8.778-.509-6.117-.593-9.96-1.735-14.93-2.455-1.579-.235-1.608-.268-2.355-.422l-.313-.218-.075-.366.215-.313.334-.068.013-.01a61.718 61.718 0 0 1 8.19-1.098c2.758-.205 8.293-.361 10.795-.355zm-.274 1.595c-4.523.01-9.185.279-11.632.376-2.413.098-2.202.041-1.319.175 1.579.242 4.904.755 6.902 1.021 0 .078 9.206 1.156 11.13 1.175a45.834 45.834 0 0 0-4.412-2.658c-.199-.102-.083-.09-.67-.089zm.21-.159.01.004-.012-.01.003.006zM58.907 164.594c1.703-.02 3.406.072 5.096.275.935.092.67.03 1.128.24l.153.329v.005l-.153.329-.366.165c-.33 0-1.51.191-4.086.255-1.544.041-.928-.109-6.576.099-1.45.147-2.915.009-4.313-.406l-.32-.218-.107-.322v-.006l.18-.287c1.06-.399 8.294-.462 9.364-.458zM32.99 170.628c.47.015.857.103 2.458.146 2.365.051 3.026-.099 4.396-.041 2.21.102 1.852.069 2.333.252l.18.308v.005l-.138.331-.366.2c-2.056.485-4.17.668-6.279.544-2.852-.059-3.258-.279-4.197-.686-.103-.043-.036 0-.379-.288l-.088-.315.195-.264.376-.127c.086-.007 1.32-.074 1.509-.065zM202.412 181.205l.19.344v.005l-.183.349-.443.152-4.515.33-19.715.286-10.305.137-9.888.118-12.551.118-14.801.137-33.08.31-32.294.303-13.819.13-11.184.105-5.102.028-5.524.016-11.101.007-13.67-.02h-.31l-.343-.143-.15-.34v-.005l.142-.343.343-.15.313-.007 13.666-.28 11.098-.205 5.524-.087 5.107-.069 11.18-.105 13.818-.13 32.292-.302 33.082-.31 14.798-.138 12.552-.118 9.89-.068 10.305-.057 19.716-.084 4.515-.062.447.148z" fill="#26273C"/><path fill-rule="evenodd" clip-rule="evenodd" d="M13.121 162.896c4.86.092 5.146.098 7.045.493.236.028.46.118.65.261l.138.324v.006l-.176.304c-.205.12-.437.184-.674.185-1.304.157-2.62.189-3.931.094a32.273 32.273 0 0 1-3.718-.137c-1.112-.255-1.033-.263-1.393-.48l-.137-.287v-.005l.149-.281.348-.196a6.486 6.486 0 0 1 1.7-.281zM25.42 171.222c1.577.117 1.166.019 1.715.241l.173.32v.005l-.149.332-.372.183c-3.871.537-2.998.379-10.206.589-1.139.083-2.284.018-3.407-.192l-.351-.169-.156-.297v-.006l.131-.309.338-.196c.274-.042.304-.089 1.273-.258a10.755 10.755 0 0 1 2.127-.167c7.251-.208 6.379-.194 8.883-.076zM25.764 179.14c.412.293.31.168.47.54-.687.548-.438.411-.961.548-.58.175-1.098.145-2.94.182a.987.987 0 0 1-.454-.048c-.564-.231-.506-.239-1.006-.75.529-.516.438-.488.994-.737.228-.072.089-.05.704-.068 1.937-.038 2.071-.121 3.193.333z" fill="#fff"/><path fill-rule="evenodd" clip-rule="evenodd" d="M161.535 133.9c.647.424.466.227.976 2.878.863 4.644 1.364 6.689 1.773 9.296.506 3.24.54 2.908.054 3.288h-.006l-.357-.069-.244-.314c0-.078-.013.027-.617-1.95-1.067-3.683-.922-3.625-2.257-10.399-.343-1.867-.12-1.254-.853-2.018a55.162 55.162 0 0 0-.515-.512 3.953 3.953 0 0 0-.787-.63l-.25-.292-.018-.343v-.005l.249-.238.383-.031a8.479 8.479 0 0 1 2.469 1.339z" fill="#26273C"/><path fill-rule="evenodd" clip-rule="evenodd" d="M84.487 112.708c2.133.282 1.315.107 2.462.42.774.271.427.077.932.409l.124.29v.005l-.155.275-.348.174a5.643 5.643 0 0 1-2.01.132c-1.059-.122-4.907-.638-5.956-.871-1.89-.412-1.464-.265-1.94-.532l-.13-.321v-.005l.164-.306c.25-.144.537-.209.824-.189 2.132-.137 2.643.054 6.034.519z" fill="#fff"/><path fill-rule="evenodd" clip-rule="evenodd" d="m110.191 141.201.303.145.17.338c.359 2.792.261.596.32 9.75a52.41 52.41 0 0 1-.269 5.862l-.161.373-.325.157h-.004l-.325-.156c-.172-.398-.166-.126-.329-2.325-.152-2.138-.186-1.905-.186-10.246a18.04 18.04 0 0 1 .319-3.424l.177-.336.307-.137.003-.001z" fill="#26273C"/><path d="M46.023 114.907a3.792 3.792 0 1 0 .001-7.583 3.792 3.792 0 0 0 0 7.583z" fill="#fff"/><path fill-rule="evenodd" clip-rule="evenodd" d="M46.465 106.817a4.315 4.315 0 0 1 4.181 4.486 4.316 4.316 0 0 1-.67 2.145 4.59 4.59 0 0 1-7.79.187 4.39 4.39 0 0 1 2.753-6.724 6.843 6.843 0 0 1 1.526-.094zm-.44 1.003a3.218 3.218 0 0 0-3.01 2.985c0 3.563 4.043 4.395 5.626 1.768.094-.17.17-.348.23-.533a3.366 3.366 0 0 0-2.844-4.227l-.001.007zm.038-.99h.016-.016zM57.305 136.862c3.254.116 4.64-.095 7.54.125 1.708.133 1.365.084 1.776.274l.145.316v.005l-.138.317c-.438.216-.095.137-1.76.32a53.373 53.373 0 0 1-7.063.227c-.995 5.371-2.026 9.194-5.056 13.908-.165.256-.068.161-.442.429l-.36-.04-.22-.293c.05-.458.015-.329.149-.594a40.765 40.765 0 0 0 1.791-4.169c3.134-8.531 2.227-10.035 3.015-10.688a.879.879 0 0 1 .623-.137zM58.888 157.436a7.146 7.146 0 0 1 3.944 1.221 7.013 7.013 0 0 1 2.316 2.587c1.044 2.119.818 2.784.818 9.346-.013 4.2.023 3.823-.11 4.117a.768.768 0 0 1-.9.36c-.306-.125-.169-.107-.361-.109-2.87-.025-8.547.104-14.02.484 3.28.601 5.59 1.034 8.326 1.454 6.106.915 6.709.512 6.772 1.298h-.01c.069 5.532.087 4.986.038 5.188a.559.559 0 0 1-.237.298c-.078.038 1.235.298-37.626.298a.784.784 0 0 1-.774-.648c-.01-.137-.029-18.762.013-19.345a7.135 7.135 0 0 1 6.221-6.497c.73-.081 25.512-.053 25.59-.052zm-4.367 1.569c-21.051 0-20.901-.206-22.436.412a5.563 5.563 0 0 0-3.157 3.336c-.426 1.086-.303.906-.303 19.66 19.794 0 16.574-.038 35.993.216l.01.012v-4.015c-4.31-.495-3.453-.173-13.573-1.847-2.47-.404-5.022-.586-5.856-.832a.654.654 0 0 1 .206-1.264c.08-.005 6.966-1.205 18.954-1.257.084 0 .034.668.034-8.968a5.577 5.577 0 0 0-4.199-5.283c-.895-.236-1.422-.17-5.673-.17zm9.93 15.802.005.004-.01-.009.004.005z" fill="#26273C"/><path fill-rule="evenodd" clip-rule="evenodd" d="M131.979 41.508c.484.02.961.116 1.415.283.302.11.187.051.532.328l.088.311v.005l-.19.26c-.589.21-.246.079-1.024.205a7.99 7.99 0 0 0-3.384.993 7.803 7.803 0 0 0-1.729 1.352 15.168 15.168 0 0 0-2.177 2.699l-.297.252-.347.007h-.007l-.23-.263a1.395 1.395 0 0 1 .151-.887 7.744 7.744 0 0 1 1.789-2.906 9.731 9.731 0 0 1 2.063-1.61 7.224 7.224 0 0 1 3.347-1.029zM123.792 53.207a1.818 1.818 0 0 1-.126-.24 6.367 6.367 0 0 1-.222-1.687c.035-.083.079-.162.133-.234h.003a1.66 1.66 0 0 1 .158-.182c1.172.064.892 0 1.106.214.026.038.054.075.085.11.016.026.028.042.045.068.04.447.11.891.211 1.329a2.482 2.482 0 0 1-.407 1.427c-.669-.398-.615-.315-.986-.805zM126.073 106.959l.26.249-.014.365-.265.278a98.193 98.193 0 0 0-3.138 1.618c-2.502 1.414-2.888 1.383-6.468 3.603-2.993 1.853-3.894 2.778-6.655 4.373l-.37.082-.31-.155-.085-.33.158-.343c0-.08 1.521-1.505 1.833-1.776a56.93 56.93 0 0 1 11.228-6.728c3.087-1.251 3.441-1.176 3.441-1.254l.385.018z" fill="#fff"/><path d="M194.527 91.328c3.847 1.12 7.837-.967 8.912-4.66 1.075-3.693-1.173-7.595-5.019-8.715-3.847-1.12-7.837.967-8.912 4.66-1.075 3.694 1.172 7.596 5.019 8.715z" fill="#00B191"/><path fill-rule="evenodd" clip-rule="evenodd" d="M196.222 78.177a6.339 6.339 0 0 0-5.067 10.291c3.308 4.174 10.003 3.197 11.665-1.588 1.499-4.15-1.794-8.758-6.598-8.703zm4.541.298a7.4 7.4 0 0 1 3.411 5.473 7.396 7.396 0 0 1-2.175 6.07 7.92 7.92 0 0 1-11.32-.528 7.919 7.919 0 0 1-1.85-3.725c-1.104-6.636 6.359-10.978 11.935-7.294l-.001.004z" fill="#00B191"/><path fill-rule="evenodd" clip-rule="evenodd" d="M195.525 88.098s5.701-.342 5.401-4.318a2.105 2.105 0 0 0-3.885-1.11 2.095 2.095 0 0 0-1.511-2.014 2.1 2.1 0 0 0-2.357.888c-2.385 3.197 2.181 6.41 2.352 6.554z" fill="#fff"/><path fill-rule="evenodd" clip-rule="evenodd" d="M195.405 88.605c-.126-.037-.117-.03-.4-.25-1.303-1.027-2.609-2.45-2.96-4.07a3.687 3.687 0 0 1 2.054-4.112 2.676 2.676 0 0 1 3.247 1.428 2.871 2.871 0 0 1 2.276-.318c1.294.394 1.845 1.516 1.831 2.866-.053 2.361-1.971 3.627-4.265 4.199a7.935 7.935 0 0 1-1.783.257zm3.918-6.324a1.768 1.768 0 0 0-1.63.373c-.262.262-.166.4-.529.523a.52.52 0 0 1-.597-.293c-.094-.27-.009-.217-.051-.505a1.686 1.686 0 0 0-1.825-1.287 2.494 2.494 0 0 0-1.664 2.081c-.213 1.687 1.315 3.337 2.653 4.388 1.648-.175 3.794-.842 4.502-2.352a2.886 2.886 0 0 0 .127-1.926 1.397 1.397 0 0 0-.986-1.002z" fill="#00B191"/></svg>