<svg width="207" height="206" fill="none" xmlns="http://www.w3.org/2000/svg"><path d="M20.81 86.325c21.014-.193 41.944.05 62.98-.368a.846.846 0 1 1 .116 1.678c-20.8.412-42.194.886-62.982.335-1.198-.032-1.346-1.634-.114-1.645zm47.228-31.851C71.543 70.08 50.062 78.793 40.286 68.92c-4.484-4.531-5.187-11.909-2.748-17.613 3.643-8.518 13.047-10.963 21.21-7.465 4.448 1.907 8.162 5.605 9.29 10.63zm-1.945-1.757a13.024 13.024 0 0 0-7.554-7.473c-9.163-3.21-18.034-1.373-20.686 8.87-1.4 5.408.108 11.957 4.857 15.28 10.912 7.633 29.018-2.967 23.383-16.677zM21.58 39.322c0-.521-.846-.509-.892-.007-1.14 12.001-.576 24.574-.534 36.64.007 1.808.64 1.94 1.771 2.014 17.986 1.185 42.683.521 60.634-.274.648-.029.667-1.13 0-1.142-20.055-.376-41.151 1.003-60.884-.18.309-12.101-.031-24.877-.095-37.051zm62.772 37.437c.069.535 1.128.607 1.117.008-.234-12.603-.126-25.3-.452-37.865-.045-1.728-.075-1.578-1.95-1.654-19.21-.748-40.642-.38-59.776.723a.55.55 0 1 0 .05 1.098c20.07-.069 40.355-.88 60.4-.23-.732 9.983-.634 28.132.611 37.92zm39.723-29.023c2.871-.184 2.772-2.04-.187-1.833-9.048.631-18.31.46-27.376.227-3.99-.103-4.386 1.554-.29 1.71 8.85.336 19.04.462 27.85-.104h.003zm8.881 31.659a76.206 76.206 0 0 0-.055-8.954c-.041-.453-.868-.516-.946-.055-.387 2.32.103 6.54.008 9.057-.023.544.956.496.991-.048h.002zM21.96 16.912c11.466-.034 96.895-.585 101.414-.402 9.941.403 10.53 12.052 9.338 12.238-1.271.198-119.69-.572-120.94-.673-.869-.07-1.278-11.13 10.188-11.163zm99.763 6.313a2.181 2.181 0 0 0 1.542 2.109c.298.091.613.118.923.078a2.208 2.208 0 1 0-1.43-4.101 2.216 2.216 0 0 0-1.035 1.91v.003zm-7.428 1.456a2.235 2.235 0 0 0 2.782.515 2.337 2.337 0 0 0 .911-2.632 2.255 2.255 0 0 0-2.389-1.453 2.183 2.183 0 0 0-1.698 1.403 2.178 2.178 0 0 0 .394 2.167zm-8.181.137a2.328 2.328 0 0 0 2.661.236c1.458-.805 1.424-3.235-.24-3.807a2.474 2.474 0 0 0-2.683.892 2.09 2.09 0 0 0 .261 2.677l.001.002zm25.826 6.569c.191 9.522-.654 19.049-.147 28.639.029.562.976.523.967-.022-.153-9.443.842-19.218.166-28.64-.042-.567-.997-.537-.988.02l.002.003zm-6.872 6.773c-10.674.498-21.133-.211-31.762-.212-.419 0-.496.754-.09.932 3.268 1.41 27.06 1.25 31.897.886a.802.802 0 0 0 .747-.825.803.803 0 0 0-.792-.782zM19.313 101.541c7.611.04 15.592.739 21.654.297.55-.041.625-.973.048-.989-7.176-.206-14.046-.667-20.836-.817-4.597-.103-7.154-1.93-7.624-6.728-.79-8.1-.48-18.388-.525-26.644-.053-9.05.795-34.02.58-36.551a.55.55 0 0 0-1.083-.101c-.301 1.498-.767 19.789-.929 33.94-.103 8.967-.5 21.353.44 29.985.497 4.578 3.576 7.586 8.275 7.608zm82.621-1.481c-13.024.803-28.006.275-41.442.618-.577.014-.58 1.002.007 1.018 13.305.355 28.169-.245 41.442-.231.798 0 .799-1.452-.007-1.402v-.003zm-6.708-44.735c-1.538.364-1.335 1.36.217 1.36 2.46 0 5.115-.274 7.663-.305 1.629-.02 2.326-1.304-.328-1.51a35.44 35.44 0 0 0-7.552.455zm41.745 65.544a30.36 30.36 0 0 0-5.188-9.41c-.326-.433.221-1.098.671-.723a18.917 18.917 0 0 1 5.695 9.816 20.58 20.58 0 0 1 19.453 4.899c.672-17.418-13.92-29.253-28.446-30.327-2.142 4.975-11.56 6.925-13.318 1.77-7.33 1.456-17.892 6.723-21.681 13.017 4.797-.031 8.132-.039 10.692.432 2.442.449 4.087 2.183 4.213 4.259.18 3.982.66 7.946 1.435 11.857 1.861-4.818 6.254-6.029 10.177-6.119 3.4-.078 11.639 1.639 16.297.529zm-2.789-34.928a62.096 62.096 0 0 1 19.378-.96c6.322.662 10.323 1.501 11.816 8.44 2.228 10.354-.092 27.009-3.659 36.977-3.071 8.576-8.697 7.767-16.202 8.337-.576.044-.731 1.038-.098 1.059 7.142.233 13.174-.05 16.448-5.862 5.049-8.962 6.879-28.988 5.398-39.247-.97-6.717-3.822-9.949-10.673-10.84-7.024-.916-15.947-1.115-22.718 1.074a.532.532 0 0 0-.331.658.537.537 0 0 0 .641.364zm32.242 1.808c4.593 1.66 9.563 3.444 12.899 7.192 7.518 8.439 3.5 22.299 1.625 32.158-2.081 10.95-4.067 21.918-6.138 32.865-.648 3.424.648 4.489 1.257 1.428 2.173-10.926 4.214-21.904 6.302-32.849 1.982-10.389 6.05-24.201-.849-33.552-3.516-4.765-9.284-6.612-14.743-8.148-.584-.16-.953.688-.353.906zm-26.553 96.972c-.257 1.066 1.341 1.367 1.605.241 2.372-10.071 5.592-22.046 6.74-32.032.909-7.914.26-13.013-8.69-13.86-7.183-.686-13.128 2.204-14.436 9.757-1.709 9.872-.686 25.823-.333 36.36a.495.495 0 0 0 .493.505.498.498 0 0 0 .504-.494c.305-10.539-.175-21.384.455-31.825.432-7.151 2.146-12.446 10.421-12.864 9.093-.459 10.909 3.008 10.112 11.48-1.012 10.746-5.196 25.806-6.869 32.731l-.002.001zm44.093-15.748c.977-1.876 4.242-5.214 6.14-5.226 1.578-.007.564 3.095 1.065 4.845 4.077.358 4.829.31 7.563 2.976.349.343.77.162.471-.336a7.537 7.537 0 0 0-2.555-2.628c1.39-2.09 3.588-3.309 4.246-3.218 1.243.17-.312 4.37.487 7.7.54 2.25 1.51 4.862.574 7.5-.726 2.052-1.895 3.919-5.43 5.036-3.246 1.03-9.389.245-12.157-1.29 4.042-2.452 2.573-8.479-3.624-6.498-8.402 2.686-12.633 3.293-21.476 1.807-.623-.104-.769.586-.12.71a40.983 40.983 0 0 0 21.338-1.167c3.355-1.058 5.718 1.044 4.112 3.275-1.63 2.265-5.989 3.099-8.633 3.5-7.986 1.214-16.443.321-20.125-.122-6.846-.823-3.344-18.273 14.486-20.652 5.108-.682 10.353.745 13.221 2.64a18.297 18.297 0 0 0-2.482 7.548c-.037.518.531.396.646-.111a25.798 25.798 0 0 1 2.255-6.289h-.002zm-17.89-1.667c-1.039.549-1.767 1.911-2.127 2.988a6.402 6.402 0 0 0-.161 3.604c.137.556.699.61.698.025a7.318 7.318 0 0 1 .68-3.203c.173-.368 1.104-1.825 1.474-2.431.389-.632.061-1.31-.562-.984l-.002.001zm5.298-1.235c-1.471.795-2.332 2.555-2.852 4.078a8.95 8.95 0 0 0-.137 4.999c.121.53.69.49.724-.034.125-1.922.448-4.64 1.841-6.421.433-.556.827-1.141 1.181-1.75.401-.686-.235-1.157-.755-.876l-.002.004zm4.499 1.065a9.424 9.424 0 0 0-2.097 2.847 7.41 7.41 0 0 0-.64 4.479c.105.541.687.634.748.04a9.53 9.53 0 0 1 1.51-4.154c.463-.708.997-1.367 1.594-1.967 1.531-1.559.312-2.505-1.113-1.246l-.002.001zm21.27 9.966a1.276 1.276 0 0 1 1.662.331c.426.586.879.256.637-.47a1.664 1.664 0 0 0-2.708-.509.391.391 0 0 0 .411.644l-.002.004zm-4.245 1.315c.069.509.973 1.544 1.544 1.517.673-.033 1.615-.737 1.549-1.409-.065-.672-3.191-.857-3.091-.112l-.002.004zm-3.352-1.567a1.517 1.517 0 0 1 1.892-.252c.559.416 1.06-.103.582-.584a1.941 1.941 0 0 0-2.507-.253 1.945 1.945 0 0 0-.606.672c-.296.482.316.727.64.413l-.001.004zM70.055 125.288c.23-1.917.343-2.859-1.699-2.958-5.87-.285-10.043 1.197-13.646 4.001-3.939 3.065-6.906 7.974-7.18 13.029a.481.481 0 0 0 .394.558.481.481 0 0 0 .558-.393c.926-4.748 3.107-9.089 6.993-12.106 4.127-3.204 8.537-4.218 13.622-3.846A22.243 22.243 0 0 1 63.18 137.2c-4.123 4.397-7.548 5.375-13.026 6.616a.48.48 0 0 0 .122.943c4.763-.06 10.522-3.301 13.756-6.694a23.104 23.104 0 0 0 6.024-12.777zm41.249 59.935c-1.605-3.52-5.594-8.034-9.937-7.157-2.71.548-5.702 3.447-7.028 5.8-.696 1.235-.383 2.657 1.182 2.854 3.627.326 7.271.421 10.91.282 3.54-.041 8.865-.247 12.226-1.136.629-.165.317-1.022-.234-1.029-2.363-.049-4.745.216-7.119.386zm-31.764 1.484c4.09.232 9.666.214 13.54-.741.6-.147.332-1.001-.215-1.001-.563 0-1.125.019-1.686.039-.88-2.154-1.954-4.345-4.08-5.507-3.418-1.868-7.027.829-9.376 3.204-3.036 3.071-1.315 3.829 1.817 4.006zM35.6 138.356a.525.525 0 0 0 .504-.534.527.527 0 0 0-.517-.521c-5.525-.027-10.86-.91-15.775-3.553-7.213-3.879-11.524-9.701-14.2-17.256 4.433-.549 11.571-.892 17.809.885 9.442 2.687 13.318 9.12 15.1 18.157.108.554 1.057.489 1.007-.098-1.57-18.155-17.867-21.91-33.435-20.241-1.72.185-2.075.282-1.392 2.087 1.647 4.352 3.942 8.719 7.108 12.022 5.776 6.027 15.362 10.132 23.791 9.052zm167.289 49.53c-13.394-.343-14.026-.274-27.422-.261-13.396.014-26.802.096-40.202.114-26.664.034-53.328.111-79.992.23-14.952.049-30.212-.181-45.125.361-.527.019-.538.914-.008.93 13.386.412 26.81.155 40.2.127 13.402-.029 26.802-.059 40.2-.092 26.664-.076 53.329-.206 79.993-.221 15.034-.009 17.318.381 32.347-.083.627-.019.637-1.088.009-1.105zm-148.984-2.401c1.212-6.466 2.863-15.58 3.293-22.017 1.536-.118 1.716-.283 2.027-1.894a31.78 31.78 0 0 0 .627-4.009c.118-1.921.396-2.758-1.799-2.806-9.04-.197-20.046-.283-28.982.322a.475.475 0 0 0-.303.813.472.472 0 0 0 .331.133c9.738.618 20.12-.597 29.533.234a26.922 26.922 0 0 1-.686 5.854c-9.67.67-18.851.574-28.514.456a40.478 40.478 0 0 1-1.44-6.149c-.094-.549-1.025-.532-1.01.055a21.34 21.34 0 0 0 1.17 6.225c.35 1.051 1.12 1.218 2.242 1.21 8.686-.058 16.952.188 25.676-.369-.9 8.488-2.285 14.071-3.204 20.547-.319 2.286.786 2.746 1.039 1.398v-.003zm22.968-43.823c.51.011.716-.811.17-.923-3.284-.669-6.99-.9-9.76 1.349-3.462 2.808-2.157 8.571-1.541 12.495 1.158 7.393 4.992 23.363 7.914 31.019.243.635 1.278.222 1.098-.402-2.32-8.115-5.743-19.771-7.562-30.757-.448-2.695-1.43-7.285-.214-9.759 1.778-3.615 6.577-3.093 9.895-3.019v-.003zM30.37 165.799c.287 4.157 2.348 15.857 3.875 19.468a.556.556 0 0 0 1.043-.318c-1.578-6.402-2.68-11.184-3.952-19.315-.095-.612-1.008-.433-.966.165zm12.378-39.908a.483.483 0 0 0 .856-.13.48.48 0 0 0-.027-.35 22.204 22.204 0 0 1-2.387-15.296 21.063 21.063 0 0 1 14.653-15.66 35.69 35.69 0 0 1 .985 14.332c-1.264 8.27-4.545 12.662-9.747 18.663-.385.445.238 1.132.714.765 3.358-2.59 6.418-7.461 8.045-11.359 2.85-6.821 3.53-15.382 1.113-22.456-.454-1.327-.592-1.426-1.898-1.016a22.617 22.617 0 0 0-11.518 8.34 21.774 21.774 0 0 0-.79 24.167zm.2 27.538c.012.609 1.051.618 1.073.005.02-.538.04-1.075.063-1.612 4.81-10.214 9.582-15.786 18.32-22.82.412-.332-.115-1.112-.596-.871-6.603 3.315-14.54 13.821-17.583 20.666.7-15.022 1.932-25.823 5.722-40.867.137-.549-.787-.807-.968-.258-3.557 10.797-5.386 25.364-5.931 36.739-4.091-9.258-12.441-16.666-21.659-20.565-.581-.245-.892.657-.333.913 9.993 4.558 17.322 12.749 21.888 22.601a151.79 151.79 0 0 0 .005 6.069z" fill="#7955C0"/><path fill-rule="evenodd" clip-rule="evenodd" d="M45.816 86.232c-8.33.008-16.661.016-25.006.092-1.232.012-1.084 1.614.114 1.646 19.8.524 40.148.12 60.01-.276l2.972-.06a.846.846 0 1 0-.116-1.677c-12.683.252-25.327.264-37.974.275zm-5.53-17.311c9.776 9.872 31.257 1.158 27.752-14.448-1.128-5.026-4.842-8.723-9.29-10.63-8.163-3.498-17.567-1.053-21.21 7.465-2.44 5.704-1.736 13.081 2.748 17.613zm22.827-20.746a13.024 13.024 0 0 1 2.98 4.542c5.635 13.71-12.47 24.31-23.383 16.676-4.75-3.322-6.258-9.871-4.857-15.278 2.652-10.244 11.523-12.08 20.686-8.871a13.022 13.022 0 0 1 4.574 2.93zm-42.426-8.86c.046-.502.892-.514.892.007.019 3.598.062 7.25.105 10.92.103 8.747.207 17.606-.01 26.13 11.72.703 23.92.502 36.096.302 8.327-.137 16.643-.274 24.788-.122.667.012.648 1.114 0 1.143-17.95.795-42.648 1.459-60.634.274-1.132-.074-1.764-.206-1.77-2.015-.01-2.809-.049-5.645-.087-8.496-.127-9.392-.255-18.936.62-28.143zm64.781 37.452c.011.599-1.048.526-1.117-.008-1.245-9.788-1.343-27.937-.61-37.921-13.299-.43-26.702-.219-40.077-.007-6.788.107-13.568.214-20.324.237a.55.55 0 1 1-.05-1.097c19.135-1.102 40.565-1.471 59.777-.724.15.007.289.011.416.016 1.463.049 1.491.05 1.533 1.639.182 7.02.229 14.082.275 21.146.037 5.578.074 11.158.177 16.72zm38.419-30.865c2.959-.206 3.058 1.65.187 1.834h-.003c-8.81.566-19 .44-27.85.103-4.096-.155-3.7-1.812.29-1.71 9.066.233 18.328.405 27.376-.227zM132.9 70.44c.194 2.981.212 5.971.055 8.954h-.002c-.035.545-1.014.593-.991.05.038-.987-.015-2.233-.07-3.525-.084-2.007-.174-4.122.062-5.533.078-.46.905-.398.946.054zM44.932 16.793c-11.097.061-19.823.11-22.972.119-11.466.034-11.057 11.093-10.188 11.163 1.25.1 119.669.87 120.94.673 1.192-.186.603-11.835-9.338-12.238-3.278-.133-49.13.12-78.442.283zm76.979 7.339a2.181 2.181 0 0 1-.188-.908v-.002a2.231 2.231 0 0 1 1.035-1.911 2.21 2.21 0 0 1 3.181 1.19 2.205 2.205 0 0 1-1.751 2.91 2.181 2.181 0 0 1-2.277-1.28zm-6.317 1.302a2.236 2.236 0 0 1-1.79-1.783 2.182 2.182 0 0 1 1.795-2.54 2.256 2.256 0 0 1 2.389 1.453 2.33 2.33 0 0 1-.911 2.632 2.237 2.237 0 0 1-1.483.238zm-8.187-.078a2.327 2.327 0 0 1-1.293-.538l-.001-.002a2.09 2.09 0 0 1-.261-2.677 2.476 2.476 0 0 1 2.683-.892c1.664.572 1.698 3.002.24 3.807a2.326 2.326 0 0 1-1.368.302zm24.392 18.419c.112-4.134.223-8.262.141-12.388l-.002-.003c-.009-.557.946-.588.988-.02.401 5.591.214 11.306.027 17.003-.128 3.903-.255 7.797-.193 11.637.009.544-.938.584-.967.022-.287-5.434-.141-10.848.006-16.251zm-26.75-5.633c6.652.166 13.293.332 20.019.017a.805.805 0 0 1 .045 1.607c-4.837.364-28.629.524-31.896-.886-.407-.178-.33-.933.089-.933 3.931 0 7.839.098 11.743.195zm-77.11 63.629c-2.847-.106-5.762-.214-8.626-.229-4.699-.023-7.778-3.03-8.275-7.609-.79-7.264-.635-17.188-.504-25.494.024-1.563.048-3.07.064-4.49.162-14.152.627-32.442.929-33.94a.55.55 0 0 1 1.084.1c.108 1.279-.055 8.278-.235 16.06-.178 7.63-.372 16.012-.346 20.492.01 1.99 0 4.097-.01 6.264-.03 6.824-.065 14.232.535 20.38.47 4.798 3.027 6.625 7.624 6.727 3.617.081 7.257.249 10.954.42 3.242.15 6.529.301 9.882.398.577.016.501.948-.048.988-3.781.276-8.31.108-13.028-.067zm49.009-1.227c8.528.001 17.115.002 24.986-.483v.002c.806-.049.805 1.403.007 1.403-5.148-.006-10.535.081-15.977.169-8.59.138-17.32.279-25.465.062-.586-.016-.584-1.004-.007-1.018 5.316-.136 10.873-.135 16.456-.135zm18.495-43.858c-1.552 0-1.755-.996-.217-1.36a35.44 35.44 0 0 1 7.552-.455c2.654.206 1.957 1.49.328 1.51-1.208.014-2.44.084-3.664.153-1.358.076-2.706.152-3.999.152zm58.117 28.295a62.1 62.1 0 0 0-19.378.961.534.534 0 0 1-.31-1.022c6.771-2.189 15.694-1.99 22.718-1.075 6.851.892 9.703 4.124 10.673 10.841 1.481 10.259-.349 30.285-5.398 39.247-3.274 5.811-9.306 6.095-16.448 5.861-.633-.02-.478-1.014.098-1.058.885-.068 1.745-.116 2.577-.162 6.22-.348 10.916-.611 13.625-8.175 3.567-9.969 5.887-26.624 3.659-36.978-1.493-6.938-5.494-7.777-11.816-8.44zm12.936 2.795-.072-.026c-.6-.218-.231-1.067.353-.906 5.459 1.536 11.227 3.383 14.743 8.148 6.066 8.222 3.653 19.894 1.635 29.655-.277 1.339-.547 2.643-.786 3.897-.569 2.985-1.135 5.972-1.701 8.96-1.51 7.968-3.021 15.943-4.601 23.889-.609 3.061-1.905 1.996-1.257-1.428.985-5.205 1.95-10.415 2.916-15.625 1.065-5.748 2.13-11.497 3.222-17.24.211-1.11.449-2.271.695-3.469 1.938-9.443 4.351-21.2-2.32-28.69-3.319-3.728-8.254-5.512-12.827-7.165zm-25.02 97.187c-.264 1.126-1.862.825-1.605-.241l.002-.001c.298-1.233.675-2.723 1.1-4.401 1.962-7.748 4.937-19.497 5.769-28.33.797-8.472-1.018-11.94-10.112-11.481-8.275.419-9.989 5.714-10.421 12.865-.369 6.118-.357 12.375-.345 18.627.008 4.418.016 8.834-.11 13.198a.495.495 0 0 1-.504.493.495.495 0 0 1-.493-.504 843.522 843.522 0 0 0-.199-5.214c-.404-10.094-.914-22.796.532-31.147 1.308-7.553 7.253-10.443 14.436-9.756 8.95.847 9.599 5.946 8.69 13.859-.923 8.033-3.188 17.353-5.273 25.934-.506 2.086-1.003 4.129-1.467 6.099zm48.628-21.215c-1.898.012-5.163 3.35-6.14 5.226l.002-.001a25.806 25.806 0 0 0-2.255 6.29c-.115.507-.683.629-.646.111a18.292 18.292 0 0 1 2.482-7.548c-2.868-1.896-8.113-3.323-13.221-2.641-17.83 2.38-21.332 19.83-14.486 20.653 3.682.443 12.139 1.336 20.125.121 2.644-.4 7.003-1.235 8.633-3.499 1.606-2.231-.757-4.334-4.112-3.275a40.994 40.994 0 0 1-21.338 1.167c-.649-.124-.503-.814.12-.71 8.843 1.486 13.074.878 21.476-1.807 6.197-1.981 7.666 4.046 3.624 6.498 2.768 1.535 8.911 2.319 12.157 1.29 3.535-1.117 4.704-2.985 5.43-5.036.796-2.245.213-4.472-.312-6.472-.092-.35-.182-.693-.262-1.028-.386-1.609-.223-3.421-.091-4.883.141-1.565.246-2.729-.396-2.818-.658-.09-2.856 1.128-4.246 3.219a7.537 7.537 0 0 1 2.555 2.628c.299.498-.122.679-.471.336-2.612-2.548-3.415-2.617-7.038-2.931l-.525-.045c-.185-.649-.163-1.484-.142-2.277.037-1.346.07-2.573-.923-2.568zm-26.157 6.547c.36-1.077 1.088-2.439 2.127-2.988l.002-.001c.623-.326.951.352.562.983a63.2 63.2 0 0 1-.402.647c-.42.674-.946 1.517-1.072 1.785a7.318 7.318 0 0 0-.68 3.203c.001.585-.561.531-.698-.025a6.402 6.402 0 0 1 .161-3.604zm4.573-.145c.52-1.523 1.381-3.283 2.852-4.078l.002-.004c.52-.281 1.156.19.755.876a15.636 15.636 0 0 1-1.181 1.75c-1.393 1.781-1.716 4.499-1.841 6.42-.034.525-.603.564-.724.035a8.95 8.95 0 0 1 .137-4.999zm5.254-.167a9.432 9.432 0 0 1 2.097-2.846l.002-.001c1.425-1.259 2.644-.313 1.113 1.246-.597.6-1.131 1.259-1.594 1.967a9.53 9.53 0 0 0-1.51 4.154c-.061.594-.643.501-.748-.04a7.412 7.412 0 0 1 .64-4.48zm24.261 6.969a1.271 1.271 0 0 0-.894.151l.002-.004a.396.396 0 0 1-.462-.159.391.391 0 0 1 .051-.485 1.661 1.661 0 0 1 2.219-.129c.213.17.381.389.489.638.242.725-.211 1.056-.637.469a1.278 1.278 0 0 0-.768-.481zm-3.595 2.982c-.571.028-1.475-1.008-1.544-1.516l.002-.004c-.1-.745 3.026-.561 3.091.112.066.672-.876 1.376-1.549 1.408zm-3.995-3.545a1.513 1.513 0 0 0-.901.462l.001-.004c-.324.314-.936.068-.64-.413a1.945 1.945 0 0 1 2.351-.907c.289.1.55.267.762.488.478.481-.023 1-.582.583a1.518 1.518 0 0 0-.991-.209zm-120.39-51.101a23.104 23.104 0 0 1-6.024 12.777c-3.234 3.393-8.993 6.634-13.757 6.694a.481.481 0 0 1-.12-.943c5.477-1.241 8.902-2.219 13.025-6.616a22.245 22.245 0 0 0 5.918-13.627c-5.085-.373-9.495.641-13.622 3.846-3.886 3.017-6.067 7.358-6.993 12.106a.484.484 0 0 1-.951-.166c.273-5.054 3.24-9.963 7.179-13.028 3.602-2.804 7.776-4.286 13.646-4.001 2.042.099 1.929 1.041 1.699 2.958zm31.312 52.777c4.343-.876 8.332 3.638 9.937 7.158.549-.039 1.099-.084 1.65-.128 1.826-.148 3.653-.296 5.469-.258.551.007.863.864.234 1.029-3.361.889-8.686 1.094-12.226 1.136a85.433 85.433 0 0 1-10.91-.282c-1.565-.197-1.878-1.619-1.182-2.854 1.326-2.353 4.318-5.252 7.028-5.801zm-8.288 7.901c-3.873.955-9.45.972-13.539.741-3.132-.177-4.853-.935-1.817-4.006 2.349-2.375 5.959-5.072 9.377-3.204 2.126 1.162 3.199 3.353 4.079 5.507a47.33 47.33 0 0 1 1.686-.04c.547 0 .816.855.215 1.002zM35.96 138.191a.525.525 0 0 1-.36.165c-8.429 1.08-18.015-3.026-23.791-9.053C8.643 126 6.348 121.634 4.7 117.282c-.683-1.805-.329-1.902 1.392-2.087 15.568-1.669 31.866 2.085 33.435 20.241.05.587-.898.652-1.008.098-1.78-9.037-5.657-15.471-15.1-18.157-6.237-1.777-13.375-1.434-17.808-.885 2.676 7.555 6.987 13.377 14.2 17.256 4.916 2.643 10.25 3.526 15.775 3.552a.526.526 0 0 1 .517.522.529.529 0 0 1-.144.369zm144.892 49.426c8.51-.017 10.711-.021 22.037.269.628.016.618 1.085-.009 1.105-9.685.299-14.077.243-20 .168-3.268-.041-7.001-.088-12.347-.085-18.174.01-36.348.073-54.522.137-8.49.03-16.98.059-25.47.084-13.398.033-26.799.063-40.201.092-3.415.007-6.832.029-10.25.051-9.985.064-19.978.129-29.95-.178-.53-.016-.52-.911.008-.93 10.954-.398 22.095-.38 33.164-.362 4 .007 7.992.013 11.961 0 26.664-.118 53.328-.195 79.992-.23 6.491-.008 12.984-.032 19.476-.055a7539.688 7539.688 0 0 1 26.111-.066zM57.198 163.468c-.43 6.437-2.08 15.55-3.293 22.017v.003c-.253 1.348-1.358.888-1.039-1.398.353-2.485.774-4.838 1.21-7.274.7-3.914 1.439-8.042 1.994-13.273-6.321.403-12.403.385-18.577.367a730.787 730.787 0 0 0-7.1.002c-1.12.007-1.89-.159-2.24-1.21a21.34 21.34 0 0 1-1.171-6.226c-.015-.586.916-.603 1.01-.054.319 2.084.8 4.14 1.44 6.149 9.663.118 18.845.214 28.514-.456a26.93 26.93 0 0 0 .686-5.854c-4.958-.438-10.185-.308-15.445-.177-4.726.117-9.48.235-14.088-.057a.472.472 0 0 1-.351-.794.47.47 0 0 1 .323-.152c8.936-.605 19.941-.52 28.982-.322 1.998.044 1.947.741 1.833 2.315-.012.155-.024.319-.035.491a31.78 31.78 0 0 1-.626 4.009c-.311 1.611-.49 1.776-2.027 1.894zm19.845-22.729c.546.111.34.934-.17.922v.004a84.862 84.862 0 0 1-.927-.028c-3.229-.107-7.35-.243-8.968 3.047-1.093 2.225-.41 6.16.065 8.89.053.306.104.597.149.869 1.714 10.354 4.853 21.303 7.151 29.322l.411 1.435c.18.624-.855 1.037-1.098.402-2.922-7.656-6.756-23.626-7.914-31.019-.051-.325-.107-.662-.164-1.01-.635-3.849-1.47-8.91 1.704-11.486 2.772-2.248 6.477-2.017 9.761-1.348zm-42.799 44.527c-1.526-3.61-3.587-15.31-3.874-19.467-.042-.599.87-.778.966-.166 1.271 8.132 2.374 12.913 3.952 19.316a.556.556 0 0 1-.766.572.554.554 0 0 1-.277-.255zm8.794-59.178a.48.48 0 0 1-.29-.197 21.777 21.777 0 0 1 .79-24.167 22.617 22.617 0 0 1 11.517-8.34c1.306-.41 1.444-.31 1.898 1.016 2.417 7.074 1.736 15.635-1.113 22.456-1.627 3.898-4.687 8.769-8.045 11.359-.476.367-1.1-.32-.714-.765 5.202-6.001 8.483-10.393 9.747-18.663a35.69 35.69 0 0 0-.986-14.333 21.063 21.063 0 0 0-14.652 15.66 22.203 22.203 0 0 0 2.387 15.296.48.48 0 0 1-.539.678zm.983 27.345c-.022.614-1.06.605-1.072-.004-.04-2.029-.047-4.049-.005-6.069-4.566-9.852-11.895-18.043-21.888-22.601-.559-.256-.248-1.159.333-.913 9.218 3.899 17.568 11.307 21.659 20.565.545-11.376 2.373-25.942 5.931-36.739.18-.549 1.105-.291.968.258-3.79 15.044-5.022 25.844-5.722 40.866 3.043-6.844 10.98-17.35 17.583-20.665.481-.242 1.008.539.596.871-8.738 7.034-13.51 12.606-18.32 22.82-.023.537-.044 1.074-.063 1.611z" fill="#00B191"/><path fill-rule="evenodd" clip-rule="evenodd" d="M153.56 84.982a62.1 62.1 0 0 0-19.378.96.534.534 0 0 1-.31-1.022c6.771-2.189 15.694-1.99 22.718-1.075 6.851.892 9.703 4.124 10.673 10.841 1.481 10.259-.349 30.285-5.398 39.247-3.274 5.812-9.306 6.095-16.448 5.862-.633-.021-.478-1.015.098-1.059.885-.067 1.745-.115 2.577-.162 6.22-.348 10.916-.61 13.625-8.175 3.567-9.968 5.887-26.623 3.659-36.978-1.493-6.938-5.494-7.777-11.816-8.44zm12.936 2.794-.072-.026c-.6-.218-.231-1.067.353-.906 5.459 1.536 11.227 3.383 14.743 8.148 6.066 8.222 3.653 19.894 1.635 29.655-.277 1.34-.547 2.643-.786 3.897-.569 2.985-1.135 5.972-1.701 8.96-1.51 7.969-3.021 15.943-4.601 23.889-.609 3.061-1.905 1.996-1.257-1.427.985-5.206 1.95-10.416 2.916-15.626 1.065-5.748 2.13-11.497 3.222-17.24.211-1.11.449-2.271.695-3.469 1.938-9.442 4.351-21.2-2.32-28.69-3.319-3.728-8.254-5.512-12.827-7.165zm-25.02 97.187c-.264 1.126-1.862.825-1.605-.241l.002-.001a446.12 446.12 0 0 1 1.1-4.4c1.962-7.749 4.937-19.498 5.769-28.331.797-8.472-1.018-11.939-10.112-11.48-8.275.418-9.989 5.713-10.421 12.865-.369 6.117-.357 12.374-.345 18.626.008 4.419.016 8.835-.11 13.198a.498.498 0 1 1-.997-.011 843.522 843.522 0 0 0-.199-5.214c-.404-10.094-.914-22.795.532-31.146 1.308-7.553 7.253-10.443 14.436-9.757 8.95.847 9.599 5.946 8.69 13.86-.923 8.032-3.188 17.352-5.273 25.933-.506 2.087-1.003 4.129-1.467 6.099zm48.628-21.215c-1.898.012-5.163 3.35-6.14 5.226h.002a25.813 25.813 0 0 0-2.255 6.289c-.115.508-.683.629-.646.111a18.288 18.288 0 0 1 2.482-7.547c-2.868-1.896-8.113-3.323-13.221-2.641-17.83 2.379-21.332 19.829-14.486 20.652 3.682.443 12.139 1.336 20.125.122 2.644-.401 7.003-1.235 8.633-3.5 1.606-2.231-.757-4.333-4.112-3.275a40.983 40.983 0 0 1-21.338 1.167c-.649-.124-.503-.814.12-.71 8.843 1.487 13.074.879 21.476-1.807 6.197-1.981 7.666 4.046 3.624 6.498 2.768 1.535 8.911 2.32 12.157 1.29 3.535-1.117 4.704-2.984 5.43-5.036.796-2.245.213-4.471-.312-6.472-.092-.35-.182-.693-.262-1.028-.386-1.609-.223-3.42-.091-4.883.141-1.564.246-2.729-.396-2.817-.658-.091-2.856 1.128-4.246 3.218a7.545 7.545 0 0 1 2.555 2.628c.299.498-.122.679-.471.336-2.612-2.547-3.415-2.617-7.038-2.93l-.525-.046c-.185-.649-.163-1.484-.142-2.277.037-1.346.07-2.573-.923-2.568zm-26.157 6.547c.36-1.077 1.088-2.439 2.127-2.988l.002-.001c.623-.326.951.352.562.984-.101.165-.244.394-.402.647-.42.673-.946 1.516-1.072 1.784a7.318 7.318 0 0 0-.68 3.203c.001.585-.561.531-.698-.025a6.402 6.402 0 0 1 .161-3.604zm4.573-.145c.52-1.523 1.381-3.283 2.852-4.078l.002-.004c.52-.281 1.156.19.755.876a15.636 15.636 0 0 1-1.181 1.75c-1.393 1.781-1.716 4.499-1.841 6.421-.034.524-.603.564-.724.034a8.95 8.95 0 0 1 .137-4.999zm5.254-.166a9.424 9.424 0 0 1 2.097-2.847l.002-.001c1.425-1.259 2.644-.313 1.113 1.246-.597.6-1.131 1.259-1.594 1.967a9.53 9.53 0 0 0-1.51 4.154c-.061.594-.643.501-.748-.04a7.41 7.41 0 0 1 .64-4.479zm24.261 6.968a1.276 1.276 0 0 0-.894.151l.002-.004a.39.39 0 0 1-.462-.158.394.394 0 0 1 .051-.486 1.661 1.661 0 0 1 2.219-.128c.213.169.381.388.489.637.242.726-.211 1.056-.637.47a1.275 1.275 0 0 0-.768-.482zm-3.595 2.983c-.571.027-1.475-1.008-1.544-1.517l.002-.004c-.1-.745 3.026-.56 3.091.112.066.672-.876 1.376-1.549 1.409zm-3.995-3.545a1.517 1.517 0 0 0-.901.461l.001-.004c-.324.314-.936.069-.64-.413a1.945 1.945 0 0 1 2.351-.907c.289.1.55.268.762.488.478.481-.023 1-.582.584a1.512 1.512 0 0 0-.991-.209zm-120.39-51.102a23.104 23.104 0 0 1-6.024 12.777c-3.234 3.393-8.993 6.634-13.757 6.694a.482.482 0 0 1-.121-.943c5.478-1.24 8.903-2.219 13.026-6.616a22.243 22.243 0 0 0 5.918-13.627c-5.085-.372-9.495.642-13.622 3.846-3.886 3.017-6.067 7.358-6.993 12.106a.481.481 0 0 1-.558.393.483.483 0 0 1-.393-.558c.273-5.055 3.24-9.964 7.179-13.029 3.602-2.804 7.776-4.286 13.646-4.001 2.042.099 1.929 1.041 1.699 2.958zm31.312 52.778c4.343-.877 8.332 3.637 9.937 7.157.55-.039 1.1-.084 1.65-.128 1.826-.148 3.653-.295 5.469-.258.551.007.863.864.234 1.029-3.361.889-8.686 1.095-12.226 1.136a85.433 85.433 0 0 1-10.91-.282c-1.565-.197-1.878-1.619-1.182-2.854 1.326-2.353 4.318-5.251 7.028-5.8zm-8.288 7.9c-3.873.956-9.45.973-13.539.741-3.132-.177-4.853-.935-1.817-4.006 2.349-2.375 5.959-5.072 9.377-3.204 2.126 1.162 3.199 3.353 4.079 5.507a47.33 47.33 0 0 1 1.686-.039c.547 0 .816.854.215 1.001zM35.96 138.191a.525.525 0 0 1-.36.165c-8.429 1.08-18.015-3.025-23.791-9.052-3.166-3.303-5.461-7.67-7.108-12.022-.683-1.805-.329-1.902 1.392-2.087 15.568-1.669 31.866 2.086 33.435 20.241.05.587-.898.652-1.008.098-1.78-9.037-5.657-15.47-15.1-18.157-6.237-1.777-13.375-1.434-17.808-.885 2.676 7.555 6.987 13.377 14.2 17.256 4.916 2.643 10.25 3.526 15.775 3.553a.53.53 0 0 1 .373.89zm144.891 49.426c8.511-.017 10.712-.021 22.038.269.628.017.618 1.086-.009 1.105-9.685.299-14.077.243-20 .168-3.268-.041-7.001-.088-12.347-.085-18.175.01-36.35.074-54.526.137-8.488.03-16.977.06-25.466.084-13.398.033-26.799.063-40.201.092-3.415.007-6.833.029-10.25.051-9.985.065-19.978.129-29.95-.177-.53-.017-.52-.912.008-.931 10.954-.398 22.096-.38 33.165-.361 4 .006 7.99.013 11.96 0 26.664-.119 53.328-.196 79.992-.23 6.491-.009 12.984-.033 19.477-.056a8424.947 8424.947 0 0 1 26.109-.066zM57.198 163.468c-.43 6.437-2.08 15.551-3.293 22.017v.003c-.253 1.348-1.358.888-1.039-1.397.353-2.485.774-4.839 1.21-7.275.7-3.914 1.439-8.042 1.994-13.273-6.321.404-12.403.386-18.577.367a730.767 730.767 0 0 0-7.1.002c-1.12.008-1.89-.159-2.24-1.21a21.334 21.334 0 0 1-1.171-6.225c-.015-.587.916-.604 1.01-.055.319 2.084.8 4.14 1.44 6.149 9.663.118 18.845.214 28.514-.456.442-1.92.672-3.883.686-5.854-4.958-.438-10.185-.308-15.445-.177-4.726.117-9.48.235-14.088-.057a.472.472 0 0 1-.351-.794.475.475 0 0 1 .323-.152c8.936-.605 19.941-.519 28.982-.322 1.998.044 1.947.741 1.833 2.315-.012.155-.024.319-.035.491a31.752 31.752 0 0 1-.626 4.009c-.311 1.611-.49 1.776-2.027 1.894zm19.845-22.729c.546.112.34.934-.17.923v.003c-.298-.007-.608-.017-.927-.027-3.229-.107-7.35-.244-8.968 3.046-1.093 2.225-.41 6.16.065 8.89.053.306.104.597.149.869 1.714 10.354 4.853 21.303 7.151 29.322l.411 1.435c.18.624-.855 1.037-1.098.402-2.922-7.656-6.756-23.626-7.914-31.018-.051-.326-.107-.663-.164-1.011-.635-3.848-1.47-8.91 1.704-11.485 2.772-2.249 6.477-2.018 9.761-1.349zm-42.799 44.528c-1.526-3.611-3.587-15.311-3.874-19.468-.042-.598.87-.777.966-.165 1.271 8.131 2.374 12.913 3.952 19.315a.556.556 0 0 1-1.043.318zm8.794-59.179a.477.477 0 0 1-.29-.197 21.777 21.777 0 0 1 .79-24.167 22.618 22.618 0 0 1 11.517-8.34c1.306-.41 1.444-.31 1.898 1.016 2.417 7.074 1.736 15.635-1.113 22.456-1.627 3.898-4.687 8.769-8.045 11.359-.476.367-1.1-.32-.714-.765 5.202-6.001 8.483-10.393 9.747-18.663a35.69 35.69 0 0 0-.986-14.333 21.065 21.065 0 0 0-14.652 15.661 22.204 22.204 0 0 0 2.387 15.296.48.48 0 0 1-.539.677zm.983 27.346c-.022.613-1.06.604-1.072-.005a151.79 151.79 0 0 1-.005-6.069c-4.566-9.852-11.895-18.043-21.888-22.601-.559-.256-.248-1.158.333-.913 9.218 3.899 17.568 11.307 21.659 20.565.545-11.375 2.373-25.942 5.931-36.739.18-.549 1.105-.291.968.258-3.79 15.044-5.022 25.845-5.722 40.867 3.043-6.845 10.98-17.351 17.583-20.666.481-.241 1.008.539.596.871-8.738 7.034-13.51 12.606-18.32 22.82-.023.537-.044 1.075-.063 1.612z" fill="#26273C"/><path fill-rule="evenodd" clip-rule="evenodd" d="M117.765 127.252c-.892 1.161-1.635 1.292-2.208 2.947a5.572 5.572 0 0 0 .158 3.947.47.47 0 0 1-.223.619.476.476 0 0 1-.626-.202 5.923 5.923 0 0 1-.535-4.739c.381-1.227 1.583-3.077 2.916-3.355a.5.5 0 0 1 .291.034.515.515 0 0 1 .227.749zm3.074 2.535a.49.49 0 0 0-.315-.794c-1.399-.051-2.567 1.865-2.778 3.076a3.877 3.877 0 0 0 1.678 3.911.48.48 0 1 0 .599-.754 3.446 3.446 0 0 1-1.058-2.983c.287-1.646 1.424-2.014 1.874-2.456zm35.119-4.608c-.106-.631-1.085-.559-1.081.044.027 4.14-1.372 8.447-8.56 9.872-8.021 1.589-15.934-.326-22.78-4.615a.457.457 0 0 0-.534.738c6.508 5.017 15.525 6.749 23.548 5.25 5.993-1.121 10.547-4.504 9.407-11.289zm-30.369 12.244c-.842.079-12.687.426-13.494.022-.808-.403-4.019-10.703-4.797-20.669-.224-2.869-.673-4.192-4.169-4.707-2.833-.418-25.15-.206-27.133 0-1.706.18-3.001.849-2.86 4.261.336 8.112 4.618 23.352 6.927 24.589 2.51 1.345 42.45 1 45.425.402 2.455-.492 2.007-4.077.101-3.898zM93.78 126.458c-.437-1.884-1.817-3.019-3.463-2.957-1.849.069-2.186 2.253-1.816 3.799.375 1.568 1.57 2.958 3.294 2.892 1.75-.067 2.423-1.85 1.985-3.734zm2.707 43.926c-.147-.549-.992-.333-.954.206.094 1.309.984 5.832 1.39 7.945.081.425.813.202.884-.189.17-.918-.986-6.724-1.32-7.962zm5.946-.113c-.274-.431-1.029-.13-.84.38.845 2.311 1.663 4.048 2.182 6.642.106.53.961.397.941-.159a17.081 17.081 0 0 0-2.282-6.863h-.001zm12.331 6.785a21.163 21.163 0 0 1-1.167-6.656.469.469 0 0 0-.437-.426.471.471 0 0 0-.492.361 14.375 14.375 0 0 0 .587 6.284c.651 2.087 2.11 3.856 1.765 6.079a.524.524 0 0 0 .974.343c1.091-1.925-.566-4.21-1.23-5.985zm-28.162-6.499a.47.47 0 0 0-.582-.203.474.474 0 0 0-.285.546c.393 1.849 2.053 5.395.94 7.06a.497.497 0 0 0 .256.719c.091.034.19.041.285.02 2.282-.74.3-6.75-.614-8.142zm9.974-9.614c-1.274-5.004-2.745-13.445 1.417-17.428-6.504-.097-11.924-.22-13.267-.221-2.466 0-5.48.585-6.233 4.104-.925 4.314 2.333 14.1 5.514 21.228 2.242.18 9.905.303 12.681-.045a58.363 58.363 0 0 1-.112-7.638zm3.818-17.397c-6.952 4.518-1.944 19.379.141 25.305 4.506.253 9.024.238 13.528-.047-.512-2.196-.602-8.16.384-9.415.986-1.255 3.949-1.135 8.371-1.076.032-5.111-.211-12.802 2.882-15.222-2.754.624-14.896.593-25.305.455h-.001zm39.968-22.779c-6.595 2.563-10.049 1.684-16.727 1.372-4.593-.214-10.92.996-12.174 6.277a.483.483 0 0 0 .335.542.484.484 0 0 0 .578-.268c2.09-5.448 8.472-5.564 13.379-5.121 4.908.443 10.682.844 15.062-1.931a.494.494 0 0 0-.095-.878.492.492 0 0 0-.358.009v-.002zm-1.733-24.603c-5.129-4.205-6.587-13.46-8.622-17.85-4.042-8.73-12.718-11.454-21.69-9.438-6.993 1.571-6.897 9.057 3.402 8.195 5.494-.46 8.112-1.842 8.131-1.853.617 2.41 3.306 6.094 3.623 5.413.776-1.67 2.415-.965 2.682.572.387 2.228-.83 3.35-2.094 3.301-.451-.017 1.795 7.803 2.354 9.263.147.382.635.318.987.329 2.833.085 7.696.53 11.227 2.071v-.003zm-20.575-2.174a11.872 11.872 0 0 0 4.317-3.225c.348-.396-.278-.948-.667-.617-1.93 1.637-3.95 3.573-6.698 3.279-2.927-.314-3.774-3.294-4.385-5.717-.144-.577-1.045-.43-.922.166.586 2.844 1.674 5.995 4.936 6.536a6.042 6.042 0 0 0 2.477-.115c.148.964-.022 1.895.054 2.715a.464.464 0 0 0 .472.38.466.466 0 0 0 .448-.408 12.19 12.19 0 0 0-.032-2.994zm1.545-7.265a.483.483 0 0 0-.518-.344.481.481 0 0 0-.424.456c.173 1.715-1.497 2.118-2.796 2.47a.448.448 0 0 0-.326.548.448.448 0 0 0 .547.326c1.634-.155 4.003-.968 3.517-3.453v-.003zm-5.195-.288c-.348.099-.715.11-1.069.036.148-.516.301-1.03.422-1.553a.45.45 0 0 0-.861-.266c-.177.48-.358 1.025-.491 1.524a.894.894 0 0 0 .754 1.27 3.298 3.298 0 0 0 1.596-.088.495.495 0 1 0-.348-.923h-.003zm-3.927-2.117c-.025-.394-.189-.836-.644-.868-.594-.04-.746.506-.668.982.064.395.361.999.86.94.48-.056.476-.695.452-1.054zm6.506-2.155a.722.722 0 0 0-1.045-.442 1.116 1.116 0 0 0-.246 1.184 1.118 1.118 0 0 0 .974.718c.593-.133.545-.873.317-1.46zm4.539-2.333a4.983 4.983 0 0 0-2.561-.006c-.608-1.242-1.884-2.584-3.392-2.339-1.681.275-2.103 2.157-1.999 3.597a1.787 1.787 0 0 0-1.379.375c-.471-1.062-1.212-2.05-2.425-2.248-2.588-.42-3.067 3.02-2.607 4.89.36 1.452 1.475 2.987 3.156 2.779 2.527-.313 2.036-4.158 2.11-4.254a1.084 1.084 0 0 1 1.247-.48c.32 1.787 1.739 3.892 3.821 3.398 2.001-.474 2.278-3.166 1.81-4.808.71-.076 1.426-.081 2.137-.014a.464.464 0 0 0 .374-.412.462.462 0 0 0-.294-.472l.002-.006zm-4.032 4.611c1.449-.68.976-3.392.441-4.385-.424-.786-1.469-2-2.486-1.515-.885.422-1.129 1.702-.872 2.954.417 2.033 1.296 3.706 2.917 2.946zm-6.095-1.976c-.188-1.18-.791-2.248-1.967-2.278-1.499-.038-1.616 2.516-1.391 3.572.201.942.949 2.217 2.084 2.133 1.378-.103 1.41-2.582 1.275-3.426h-.001z" fill="#26273C"/><path fill-rule="evenodd" clip-rule="evenodd" d="M57.898 52.977c0-3.632-3.078-6.44-6.71-6.44-3.575 0-6.505 2.865-6.505 6.44a6.16 6.16 0 0 0 1.43 3.96 6.583 6.583 0 0 0 5.075 2.367c2.141 0 4.108-.964 5.351-2.502a6.017 6.017 0 0 0 1.359-3.826zm-1.084-.053c0-2.997-2.377-5.48-5.375-5.48-3.08 0-5.672 2.4-5.672 5.48 0 1.052.303 2.024.825 2.848.155.244.329.476.52.692a5.769 5.769 0 0 0 4.327 1.932 5.32 5.32 0 0 0 4.177-2.028 5.525 5.525 0 0 0 1.198-3.444z" fill="#00B191"/><path d="M40.297 67.364c-.022-.28-.033-.564-.033-.85 0-4.178 2.389-7.73 5.849-9.577a6.328 6.328 0 0 1-.508-.708c-3.76 1.956-6.34 5.855-6.34 10.379l1.032.756zM62.32 66.513c0 .5-.034.992-.098 1.474l1.057-.47c.025-.3.037-.603.037-.91 0-4.527-2.628-8.35-6.409-10.31a6.273 6.273 0 0 1-.368.505c3.452 1.833 5.78 5.52 5.78 9.711z" fill="#00B191"/></svg>