<svg width="227" height="206" fill="none" xmlns="http://www.w3.org/2000/svg"><path d="M84.028 78.571c-.055-.447-.256-1.206-.748-1.352-.011 0-.011-.01-.022-.01a.51.51 0 0 0-.738.3 1.188 1.188 0 0 0 .235 1.107c.048.114.108.222.179.324a.465.465 0 0 0 .57.19c.01 0 .01-.011.022-.011a.503.503 0 0 0 .502-.548z" fill="#26273C"/><path d="M75.394 171.832a13.274 13.274 0 0 0 3.98 6.235c.457.4.934.777 1.43 1.129.39.279 1.184.569 1.352 1.016.098.429.15.867.156 1.307.045.392.09.794.145 1.185-.03.715.145 1.425.503 2.044a.478.478 0 0 0 .76-.1c.324-.682.078-1.487-.011-2.213-.1-.804-.168-1.609-.302-2.401-.19-1.195-1.597-1.62-2.458-2.29a17.818 17.818 0 0 1-4.974-6.148.319.319 0 0 0-.58.235v.001z" fill="#26273C" stroke="#26273C" stroke-width=".336" stroke-miterlimit="10"/><path d="M162.58 39.838c4.765 1.932 10.042 1.667 14.972 2.947a.155.155 0 0 1 .102.117.156.156 0 0 1-.053.146 124.333 124.333 0 0 1-8.928 8.884c-.404.371-.325.742-.325 1.262-.009.9-.035 1.8-.079 2.7-.185 3.582-.644 7.137-1.095 10.693a.165.165 0 0 1-.028.086.164.164 0 0 1-.161.068.162.162 0 0 1-.081-.039l-.212-.212-3.311-2.372-5.448-6.06-.661-.767c-1.502 1.803-3.377 3.163-5.305 4.464a1.17 1.17 0 0 0-.245-.247.913.913 0 0 0-.935-.13.802.802 0 0 0-.363.28l-.137.197c-.051-.843-.445-1.72-1.214-2.168-.514-.281-1.301-.17-1.681.266l-.699-.975c.382-2.072.783-4.14 1.203-6.204a101.377 101.377 0 0 1-11.443-9.379c-.08-.08-.053-.256.071-.273a95.705 95.705 0 0 0 6.749-1.183 94.333 94.333 0 0 0 5.858-1.455c.522-.15 1.051-.3 1.572-.459.235-.034.461-.118.661-.247.143-.191.242-.41.292-.644.361-.954.723-1.906 1.102-2.85a166.52 166.52 0 0 1 4.8-10.836c.062-.14.256-.088.3.035l4.713 14.329a.032.032 0 0 1 .008.012c.001.005.002.01.001.014z" fill="#00B191"/><path d="M87.058 82.18a.539.539 0 0 0 .313-.2c.57-.805 1.073-1.487.369-2.37a17.326 17.326 0 0 0-2.503-2.614.223.223 0 0 0-.09-.045 31.549 31.549 0 0 0-2.133-4.357.324.324 0 0 0-.124-.123c.088-.73.126-1.466.112-2.201a.6.6 0 0 0-.19-.458c.023-2.346-1.832-3.575-3.787-4.894a9.977 9.977 0 0 0-8.749-1.106c-2.881.905-5.296 1.865-7.095 4.301-1.776 2.414-3.072 7.163-3.72 10.056-1.564 6.972-.67 12.536-1.05 19.609a41.72 41.72 0 0 1-1.688 10.361c-.212.659-.804 1.541-.368 2.178.512.68 1.092 1.305 1.732 1.866a20.782 20.782 0 0 0 3.876 2.872c6.593 3.743 14.112 1.318 20.335-3.006a.667.667 0 0 0 .302-.737c-1.833-4.548-2.257-7.307-2.77-12.179-.448-4.28.021-8.983-2.235-12.837a.654.654 0 0 0-1.118 0c-1.106 1.474-3.106.334-3.564-1.074-.156-.48-.369-1.943-.068-2.4.446-.682 1.578-.413 2.078-.023a.68.68 0 0 0 .793-.1c1.967-1.71 3.989-2.972 5.42-5.174a11.211 11.211 0 0 0 1.531-3.71c1.263 3.363 2.793 6.638 3.654 10.135.368 1.497.905 3.854-.291 5.128a3.741 3.741 0 0 1-2.502 1.006 4.31 4.31 0 0 1-1.364-.146 3.39 3.39 0 0 0-1.173-.279.453.453 0 0 0-.391.67 2.361 2.361 0 0 0 1.71.86c-.47 1.274-.537 3.565.457 4.593a.48.48 0 0 0 .794-.47 9.955 9.955 0 0 1-.58-2.122c-.045-.648.021-1.296-.057-1.945.056 0 .112.012.168.012a5.546 5.546 0 0 0 2.826-.66c1.866-1.016 2.123-3.06 1.9-4.994a18.896 18.896 0 0 0-.76-3.423zM65.807 68.303a17.168 17.168 0 0 0-2.47 6.358 37.989 37.989 0 0 0-.47 4.056c.001 1.341-.122 2.68-.368 4a.235.235 0 0 1-.447 0 12.08 12.08 0 0 1-.179-4.391c.096-1.357.264-2.707.503-4.045a15.79 15.79 0 0 1 1.017-3.508c.233-.55.513-1.078.838-1.578.32-.465.718-.872 1.174-1.205.212-.167.57.045.402.313zm14.592 3.945a13.786 13.786 0 0 1-1.352 2.413c-.411.581-.905 1.497-1.553 1.833a.365.365 0 0 1-.536-.302 4.248 4.248 0 0 1 .793-2c.369-.67.782-1.32 1.14-2.011.351-.672.607-1.39.76-2.132.11-.766.158-1.54.145-2.313a.405.405 0 0 1 .748-.201c.961 1.383.47 3.282-.145 4.713zm6.346 8.96c-.257-.737-.525-1.474-.793-2.212a2.981 2.981 0 0 0-.112-.29c.123.167.257.323.391.49.268.292.514.602.738.929.257.413.022.748-.224 1.083z" fill="#26273C" stroke="#26273C" stroke-width=".168" stroke-miterlimit="10"/><path d="M142.343 68.985a12.996 12.996 0 0 0 1.765-3.676c.514-1.372.972-2.76 1.352-4.179a57.76 57.76 0 0 0 .949-4.156 46.54 46.54 0 0 0 .37-2.223c.078-.55.343-1.296-.157-1.676a.403.403 0 0 0-.469-.056c-.581.246-.514.994-.592 1.53-.101.66-.213 1.319-.324 1.978a53.34 53.34 0 0 1-.939 4.168 69.592 69.592 0 0 1-1.173 3.966 24.001 24.001 0 0 0-1.296 4.044c-.011.246.302.548.514.28zM146.711 61.566a.308.308 0 0 0 .36.289.306.306 0 0 0 .154-.077c.369-.301.771-.58 1.118-.078.211.418.303.886.268 1.352.028.906-.039 1.812-.202 2.704-.151.818-.36 1.625-.625 2.413-.201.618-.804 1.51-.458 2.134a.271.271 0 0 0 .301.123c.492-.134.626-.603.794-1.05.257-.659.48-1.341.67-2.022.368-1.282.549-2.61.536-3.944-.022-.95-.078-2.212-1.016-2.76-.715-.39-1.955-.023-1.9.916zM150.655 67.197a14.601 14.601 0 0 1-.447 2.078 6.844 6.844 0 0 0-.581 2.123c.011.224.291.447.503.29.871-.647 1.117-2.044 1.341-3.038.258-1.163.389-2.35.391-3.542 0-.804.145-2.078-.603-2.637a.918.918 0 0 0-.936-.13.919.919 0 0 0-.551.767.305.305 0 0 0 .36.292.301.301 0 0 0 .154-.08c.603-.57.525 1.285.525 1.542.004.781-.048 1.562-.156 2.335z" fill="#26273C" stroke="#26273C" stroke-width=".336" stroke-miterlimit="10"/><path d="M63.665 142.644a.337.337 0 0 1 .006.141l-.285.656c-.137.513-.381 1.016-.549 1.519a37.75 37.75 0 0 0-.625 2.022c-.19.659-.336 1.318-.492 1.978l-.19.748a24.421 24.421 0 0 1-.403 1.51.271.271 0 0 1-.313.2.258.258 0 0 1-.122-.055.365.365 0 0 1-.324.179 23.324 23.324 0 0 1-5.106-.771 81.652 81.652 0 0 1-5.128-1.273 97.447 97.447 0 0 1-9.77-3.313c-4.95-1.977-10.368-4.469-12.737-9.586a9.85 9.85 0 0 1-.447-7.632c.965-2.607 2.797-4.807 4.528-6.93a75.688 75.688 0 0 1 18.389-16.192 39.441 39.441 0 0 1 7.24-3.774.35.35 0 0 1 .104-.024c.332-.024.48.501.175.694-2.48 1.598-5.117 2.938-7.587 4.559a79.33 79.33 0 0 0-7.094 5.229 76.41 76.41 0 0 0-10.906 11.095c-1.664 2.078-3.452 4.312-4.022 6.972a9.302 9.302 0 0 0 1.721 7.117 16.64 16.64 0 0 0 6.09 5.028 59.677 59.677 0 0 0 7.684 3.273 104.504 104.504 0 0 0 8.403 2.648c1.419.38 2.848.727 4.279 1.061 1.442.263 2.867.61 4.268 1.04a.36.36 0 0 1 .111.056 16.55 16.55 0 0 1 .648-4.101c.202-.759.425-1.52.682-2.268a5.752 5.752 0 0 1 .804-1.81 46.13 46.13 0 0 1-4.11-3.419c-1.487-1.285-2.94-2.592-4.415-3.877-1.396-1.218-2.29-2.48-3.765-3.609-.737-.57-1.508-1.419-2.268-1.955-1.273-.916-1.765-1.386-2.324-1.766-.582-.379-.651-.536-.033-.267a24.642 24.642 0 0 1 4.658 3.072 66.619 66.619 0 0 1 2.315 1.856c.65.543 1.292 1.095 1.931 1.652a370.375 370.375 0 0 1 4.47 3.944 39.018 39.018 0 0 1 4.446 4.246.34.34 0 0 1 .063.127z" fill="#7955C0"/><path d="M116.678 104.771c-2.223-1.798-5.619-3.499-8.245-4.658a72.853 72.853 0 0 0-8.995-3.073 41.716 41.716 0 0 0-9.564-1.977c-1.609-.079-3.43-.101-4.905.636-1.51.76-2.592 2.145-4.447 1.8h-.825l-7.107 1.004-15.149 3.544c.332-.024.48.501.175.694-2.48 1.598-5.117 2.938-7.587 4.559a79.33 79.33 0 0 0-7.094 5.229 76.41 76.41 0 0 0-10.906 11.095c-1.664 2.078-3.452 4.312-4.022 6.972a9.302 9.302 0 0 0 1.721 7.117 16.64 16.64 0 0 0 6.09 5.028 59.677 59.677 0 0 0 7.684 3.273 104.504 104.504 0 0 0 8.403 2.648c1.419.38 2.848.727 4.279 1.061 1.442.263 2.867.61 4.268 1.04a.36.36 0 0 1 .111.056 16.55 16.55 0 0 1 .648-4.101c.202-.759.425-1.52.682-2.268a5.752 5.752 0 0 1 .804-1.81 46.13 46.13 0 0 1-4.11-3.419c-1.487-1.285-2.94-2.592-4.415-3.877-1.396-1.218-2.29-2.48-3.765-3.609-.737-.57-1.508-1.419-2.268-1.955-1.273-.916-1.765-1.386-2.324-1.766-.582-.379-.651-.536-.033-.267a24.642 24.642 0 0 1 4.658 3.072 66.619 66.619 0 0 1 2.315 1.856l.255-.287a8.807 8.807 0 0 0 1.765-1.386 54.45 54.45 0 0 1 1.966-1.598 47.16 47.16 0 0 1 3.922-2.704c.146.503.29 1.006.447 1.51a95.512 95.512 0 0 0 2.302 6.738c.994 2.603 2.09 5.161 3.285 7.675l.467.884a113.83 113.83 0 0 0 1.888 3.676l.313.548c.012.012.02.028.023.045a.546.546 0 0 0 .916.044 34.167 34.167 0 0 0 3.966-.536c1.307-.19 2.615-.402 3.922-.593 2.751-.396 5.524-.62 8.302-.67a38.762 38.762 0 0 1 7.945.659c.625.123 1.24.258 1.852.412a3.51 3.51 0 0 0 1.578.301l.488-.313c.16-.256.28-.535.357-.826.09-.257.19-.503.28-.76.289-.687.52-1.397.692-2.123a99.936 99.936 0 0 0 2.034-7.866c.38-1.72.693-3.463.96-5.206.331-1.714.529-3.451.593-5.195l8.771 1.509c5.117.883 11.072 2.168 16.011-.137 4.301-2.011 6.58-6.603 8.547-10.659a124.633 124.633 0 0 0 6.167-15.217 99.043 99.043 0 0 0 4.346-17.832.344.344 0 0 0-.156-.344.552.552 0 0 0-.167-.411c-.045-.045-.09-.079-.134-.123l-.728-.48a9.273 9.273 0 0 0-2.76-1.029 21.026 21.026 0 0 0-1.852-.301 6.683 6.683 0 0 0-1.408-.101l-.324.055a2.272 2.272 0 0 0-.391.134.562.562 0 0 0-.415-.233.57.57 0 0 0-.446.164c-3.773 3.766-6.861 8.19-10.078 12.424a2260.804 2260.804 0 0 0-5.083 6.75 75.745 75.745 0 0 0-4.798 6.814l-.051-.039c-.507-.384-1.049-.794-1.646-1.277z" fill="#7955C0"/><path d="M151.929 64.473c.235-.55.961-.437 1.318-.069.548.559.414 1.665.483 2.391a15.076 15.076 0 0 1-1.419 5.698c-.771 1.676-1.978 3.028-3.05 4.515-1.006 1.396-2.112 2.882-2.391 4.614a.357.357 0 0 1-.212.268c.044.045.089.078.134.123a.552.552 0 0 1 .167.412.343.343 0 0 1 .156.343 99.038 99.038 0 0 1-4.346 17.832 124.568 124.568 0 0 1-6.167 15.217c-1.967 4.057-4.246 8.648-8.547 10.659-4.939 2.305-10.894 1.02-16.011.137l-8.771-1.509-.918-.188a14.71 14.71 0 0 1-3.073-.917c-1.384-.569-2.424-.938-3.854-1.563-.503-.213-.324-.582.213-.47 1.485.313 2.916.883 4.413 1.218 1.387.304 2.798.544 4.198.783l.124.021c3.151.548 6.313 1.106 9.463 1.632l.19.032c4.859.809 10.761 1.793 15.028-1.295a16.25 16.25 0 0 0 4.269-5.073c1.239-2.111 2.299-4.335 3.329-6.558a121.002 121.002 0 0 0 5.712-14.806c1.542-4.949 2.645-9.977 3.743-15.038a1.27 1.27 0 0 1-.343-.18 7.413 7.413 0 0 0-1.944-.983c-.715-.234-1.464-.39-2.201-.558-.76-.179-1.564-.235-2.313-.436a.52.52 0 0 1-.137.201c-3.81 3.789-6.904 8.235-10.145 12.503a2640.254 2640.254 0 0 1-5.05 6.614 72.878 72.878 0 0 1-5.341 6.525.24.24 0 0 1-.312.015.24.24 0 0 1-.067-.305 75.537 75.537 0 0 1 4.916-7.006c1.691-2.253 3.385-4.503 5.083-6.748 3.217-4.235 6.305-8.66 10.078-12.425a.565.565 0 0 1 .679-.093c.072.04.134.096.182.162.126-.056.257-.101.391-.134a.306.306 0 0 1-.137-.1 10.259 10.259 0 0 1-1.006-2.224c-.312-.726-.648-1.452-.938-2.179a16.992 16.992 0 0 1-1.252-4.436 4.663 4.663 0 0 1 1.098-3.81c.804-.828 2.235-1.643 3.419-1.51a.365.365 0 0 1 .257.618c-.86.827-2.179.905-2.972 1.866-.835 1.006-.749 2.447-.492 3.653.346 1.36.79 2.694 1.33 3.989.257.67.525 1.341.737 2.034a4.79 4.79 0 0 1 .381 1.843.351.351 0 0 1-.101.201c.471-.016.943.018 1.408.101.623.078 1.235.168 1.852.301a9.273 9.273 0 0 1 2.76 1.03c-.225-1.408.703-2.526 1.441-3.665.815-1.274 1.744-2.447 2.636-3.665a13.593 13.593 0 0 0 2.168-4.424c.234-.867.391-1.754.469-2.648.046-.525.347-2.257-.503-2.179-.201.022-.28-.212-.212-.357zM96.549 145.898c.274.068.544.146.823.224l.508.418.477.541a.326.326 0 0 1 .123.122 51.811 51.811 0 0 1 2.95 7.308 113.32 113.32 0 0 1 3.576 13.698 114.23 114.23 0 0 1 1.139 6.96c.367 2.311.574 4.645.618 6.984 0 .545-.894.704-.983.134-.392-2.603-.548-5.229-.916-7.832a113.178 113.178 0 0 0-2.794-13.754c-1.207-4.48-2.827-8.827-4.19-13.251a.104.104 0 0 1-.01-.056 3.511 3.511 0 0 1-1.579-.302 35.249 35.249 0 0 0-1.852-.411 38.693 38.693 0 0 0-7.945-.66c-2.778.05-5.551.274-8.302.671-1.307.19-2.615.402-3.922.592-1.31.256-2.635.435-3.966.536a.54.54 0 0 1-.728.149.538.538 0 0 1-.188-.193.082.082 0 0 0-.023-.045.157.157 0 0 1-.033.045 34.777 34.777 0 0 0-4.76 6.715 71.412 71.412 0 0 0-5.508 15.049 62.845 62.845 0 0 0-1.587 8.268c-.334 2.772-.268 5.531-.48 8.302-.045.503-.871.693-.95.123-.447-3.137-.044-6.469.392-9.586a76.198 76.198 0 0 1 4.525-16.816 49.498 49.498 0 0 1 3.206-6.994 16.625 16.625 0 0 1 4.738-5.598.469.469 0 0 1 .144-.055 114.928 114.928 0 0 1-1.888-3.677c-.424.325-1.106.179-1.62.157a9.335 9.335 0 0 1-2.09-.19l-.068-.033c-.137.514-.381 1.017-.549 1.519a37.785 37.785 0 0 0-.625 2.023c-.19.658-.336 1.318-.492 1.977a6.19 6.19 0 0 1 2.112.95c.402.257 1.508.826 1.161 1.463-.39.716-1.277-.201-1.62-.469-.592-.436-1.262-.76-1.843-1.195a24.581 24.581 0 0 1-.403 1.509.275.275 0 0 1-.435.145.367.367 0 0 1-.324.18 23.386 23.386 0 0 1-5.106-.772 81.652 81.652 0 0 1-5.128-1.273 97.447 97.447 0 0 1-9.77-3.313c-4.95-1.977-10.368-4.468-12.737-9.586a9.85 9.85 0 0 1-.447-7.631c.965-2.608 2.797-4.808 4.528-6.93a75.67 75.67 0 0 1 18.389-16.193 39.441 39.441 0 0 1 7.24-3.774c.402-.156.614.458.279.671-2.48 1.597-5.117 2.938-7.587 4.558a79.526 79.526 0 0 0-7.094 5.229 76.41 76.41 0 0 0-10.906 11.095c-1.664 2.078-3.452 4.312-4.022 6.972a9.302 9.302 0 0 0 1.721 7.117 16.64 16.64 0 0 0 6.09 5.028 59.677 59.677 0 0 0 7.684 3.273 104.103 104.103 0 0 0 8.403 2.648c1.419.38 2.848.727 4.279 1.062a37.22 37.22 0 0 1 4.268 1.039.36.36 0 0 1 .111.056c.043-1.389.261-2.766.648-4.101a33.61 33.61 0 0 1 .682-2.268 5.752 5.752 0 0 1 .804-1.81 46.13 46.13 0 0 1-4.11-3.419c-1.487-1.284-2.94-2.592-4.415-3.877-1.396-1.217-2.29-2.48-3.765-3.609-.737-.57-1.508-1.419-2.268-1.955-1.273-.916-1.765-1.385-2.324-1.766-.582-.379-.651-.535-.033-.267a24.69 24.69 0 0 1 4.658 3.072c1.465 1.117 2.86 2.302 4.246 3.509a370.297 370.297 0 0 1 4.47 3.943 39.106 39.106 0 0 1 4.446 4.246.347.347 0 0 1 .069.268 11.35 11.35 0 0 1 1.832-.137 5.954 5.954 0 0 1 1.194-.024 105.628 105.628 0 0 1-3.285-7.676 95.512 95.512 0 0 1-2.302-6.738c-.156-.504-.301-1.007-.447-1.509a46.92 46.92 0 0 0-3.922 2.704 53.374 53.374 0 0 0-1.966 1.597 8.772 8.772 0 0 1-1.765 1.386.267.267 0 0 1-.313-.044.266.266 0 0 1-.045-.314 6.86 6.86 0 0 1 1.642-1.852 26.544 26.544 0 0 1 1.911-1.642 31.082 31.082 0 0 1 4.179-2.838c-.391-1.4-.679-2.826-.86-4.268-.047-.413.288-.447.411-.112.779 2.19 1.583 4.491 2.264 6.715.667 2.19 1.408 4.358 2.224 6.502a102.5 102.5 0 0 0 5.754 12.481 27.981 27.981 0 0 1 3.72-.816 91.939 91.939 0 0 1 3.912-.636 71.689 71.689 0 0 1 7.586-.716 43.192 43.192 0 0 1 7.41.336c1.261.164 2.511.403 3.744.714z" fill="#26273C"/><path d="M60.384 125.698c-.391-1.4-.679-2.826-.86-4.268-.047-.413.288-.447.411-.112.779 2.19 1.583 4.491 2.264 6.715.667 2.19 1.408 4.358 2.224 6.502a102.5 102.5 0 0 0 5.754 12.481 27.981 27.981 0 0 1 3.72-.816 91.939 91.939 0 0 1 3.912-.636 71.689 71.689 0 0 1 7.586-.716 43.192 43.192 0 0 1 7.41.336c1.261.164 2.511.403 3.744.714.274.068.544.146.823.224l.508.418.477.541a.326.326 0 0 1 .123.122 51.811 51.811 0 0 1 2.95 7.308 113.32 113.32 0 0 1 3.576 13.698 114.23 114.23 0 0 1 1.139 6.96c.367 2.311.574 4.645.618 6.984 0 .545-.894.704-.983.134-.392-2.603-.548-5.229-.916-7.832a113.178 113.178 0 0 0-2.794-13.754c-1.207-4.48-2.827-8.827-4.19-13.251a.104.104 0 0 1-.01-.056 3.511 3.511 0 0 1-1.579-.302 35.249 35.249 0 0 0-1.852-.411 38.693 38.693 0 0 0-7.945-.66c-2.778.05-5.551.274-8.302.671-1.307.19-2.615.402-3.922.592-1.31.256-2.635.435-3.966.536a.54.54 0 0 1-.728.149.538.538 0 0 1-.188-.193.082.082 0 0 0-.023-.045.157.157 0 0 1-.033.045 34.777 34.777 0 0 0-4.76 6.715 71.412 71.412 0 0 0-5.508 15.049 62.845 62.845 0 0 0-1.587 8.268c-.334 2.772-.268 5.531-.48 8.302-.045.503-.871.693-.95.123-.447-3.137-.044-6.469.392-9.586a76.198 76.198 0 0 1 4.525-16.816 49.498 49.498 0 0 1 3.206-6.994 16.625 16.625 0 0 1 4.738-5.598.469.469 0 0 1 .144-.055 114.928 114.928 0 0 1-1.888-3.677c-.424.325-1.106.179-1.62.157a9.335 9.335 0 0 1-2.09-.19l-.068-.033c-.137.514-.381 1.017-.549 1.519a37.785 37.785 0 0 0-.625 2.023c-.19.658-.336 1.318-.492 1.977a6.19 6.19 0 0 1 2.112.95c.402.257 1.508.826 1.161 1.463-.39.716-1.277-.201-1.62-.469-.592-.436-1.262-.76-1.843-1.195a24.581 24.581 0 0 1-.403 1.509.275.275 0 0 1-.435.145.367.367 0 0 1-.324.18 23.386 23.386 0 0 1-5.106-.772 81.652 81.652 0 0 1-5.128-1.273 97.447 97.447 0 0 1-9.77-3.313c-4.95-1.977-10.368-4.468-12.737-9.586a9.85 9.85 0 0 1-.447-7.631c.965-2.608 2.797-4.808 4.528-6.93a75.67 75.67 0 0 1 18.389-16.193 39.441 39.441 0 0 1 7.24-3.774c.402-.156.614.458.279.671-2.48 1.597-5.117 2.938-7.587 4.558a79.526 79.526 0 0 0-7.094 5.229 76.41 76.41 0 0 0-10.906 11.095c-1.664 2.078-3.452 4.312-4.022 6.972a9.302 9.302 0 0 0 1.721 7.117 16.64 16.64 0 0 0 6.09 5.028 59.677 59.677 0 0 0 7.684 3.273 104.103 104.103 0 0 0 8.403 2.648c1.419.38 2.848.727 4.279 1.062a37.22 37.22 0 0 1 4.268 1.039.36.36 0 0 1 .111.056c.043-1.389.261-2.766.648-4.101a33.61 33.61 0 0 1 .682-2.268 5.752 5.752 0 0 1 .804-1.81 46.13 46.13 0 0 1-4.11-3.419c-1.487-1.284-2.94-2.592-4.415-3.877-1.396-1.217-2.29-2.48-3.765-3.609-.737-.57-1.508-1.419-2.268-1.955-1.273-.916-1.765-1.385-2.324-1.766-.582-.379-.651-.535-.033-.267a24.69 24.69 0 0 1 4.658 3.072c1.465 1.117 2.86 2.302 4.246 3.509a370.297 370.297 0 0 1 4.47 3.943 39.106 39.106 0 0 1 4.446 4.246.347.347 0 0 1 .069.268 11.35 11.35 0 0 1 1.832-.137 5.954 5.954 0 0 1 1.194-.024 105.672 105.672 0 0 1-3.285-7.676 95.512 95.512 0 0 1-2.302-6.738c-.156-.504-.301-1.007-.447-1.509m-.28-1.003a31.082 31.082 0 0 0-4.178 2.838 26.544 26.544 0 0 0-1.91 1.642 6.86 6.86 0 0 0-1.643 1.852.263.263 0 0 0 .358.358 8.772 8.772 0 0 0 1.765-1.386 53.374 53.374 0 0 1 1.966-1.597 46.92 46.92 0 0 1 3.922-2.704m-.28-1.003.28 1.003m92.584-62.297c-.357-.368-1.083-.48-1.318.069-.068.145.011.38.212.357.85-.078.549 1.654.503 2.179a15.253 15.253 0 0 1-.469 2.648 13.593 13.593 0 0 1-2.168 4.424c-.892 1.218-1.821 2.391-2.636 3.665-.738 1.14-1.666 2.257-1.441 3.665a9.273 9.273 0 0 0-2.76-1.03 21.026 21.026 0 0 0-1.852-.3 6.683 6.683 0 0 0-1.408-.102.351.351 0 0 0 .101-.2 4.79 4.79 0 0 0-.381-1.844c-.212-.693-.48-1.364-.737-2.034a28.856 28.856 0 0 1-1.33-3.989c-.257-1.207-.343-2.647.492-3.653.793-.96 2.112-1.04 2.972-1.866a.366.366 0 0 0-.257-.618c-1.184-.133-2.615.682-3.419 1.51a4.663 4.663 0 0 0-1.098 3.81c.214 1.529.635 3.021 1.252 4.436.29.727.626 1.453.938 2.178.246.78.583 1.526 1.006 2.224.035.046.083.081.137.101a2.272 2.272 0 0 0-.391.134.562.562 0 0 0-.415-.232.57.57 0 0 0-.446.163c-3.773 3.766-6.861 8.19-10.078 12.425a2260.804 2260.804 0 0 0-5.083 6.748 75.537 75.537 0 0 0-4.916 7.006.24.24 0 0 0 .067.305.24.24 0 0 0 .312-.015 72.878 72.878 0 0 0 5.341-6.525c1.687-2.201 3.374-4.413 5.05-6.614 3.241-4.268 6.335-8.714 10.145-12.503a.52.52 0 0 0 .137-.201c.749.201 1.553.257 2.313.436.737.168 1.486.324 2.201.558.693.23 1.348.562 1.944.984.105.076.22.137.343.178-1.098 5.062-2.201 10.09-3.743 15.04-1.578 5.054-3.487 10-5.712 14.805-1.03 2.223-2.09 4.447-3.329 6.558a16.25 16.25 0 0 1-4.269 5.073c-4.322 3.128-10.323 2.078-15.218 1.263-3.15-.526-6.312-1.084-9.463-1.632-1.441-.245-2.894-.491-4.322-.804-1.497-.335-2.928-.905-4.413-1.218-.537-.112-.716.257-.213.47 1.43.625 2.47.994 3.855 1.563a14.71 14.71 0 0 0 3.072.917l.918.188 8.771 1.509c5.117.883 11.072 2.168 16.011-.137 4.301-2.011 6.58-6.602 8.547-10.659a124.568 124.568 0 0 0 6.167-15.217 99.038 99.038 0 0 0 4.346-17.832.343.343 0 0 0-.156-.343.552.552 0 0 0-.167-.412c-.045-.045-.09-.078-.134-.123a.355.355 0 0 0 .212-.268c.279-1.732 1.385-3.218 2.391-4.614 1.072-1.487 2.279-2.839 3.05-4.514a15.076 15.076 0 0 0 1.419-5.699c-.069-.726.065-1.832-.483-2.39z" stroke="#26273C" stroke-width=".336" stroke-miterlimit="10"/><path d="M131.907 40.995c-5.002-.97-10.261-.37-15.14-2.011 0-.009 0-.009-.009-.018-1.87-4.667-3.737-9.338-5.602-14.01a.168.168 0 0 0-.059-.087.165.165 0 0 0-.258.086 156.053 156.053 0 0 0-4.156 11.27c-.318.97-.626 1.941-.918 2.911-.079.256-.108.441-.344.574-.213.1-.434.183-.662.247a90.543 90.543 0 0 1-7.198 2.339 87.255 87.255 0 0 1-6.583 1.567.163.163 0 0 0-.07.27 100.612 100.612 0 0 0 12.016 8.65 365.92 365.92 0 0 0-.677 5.16 9.101 9.101 0 0 1 5.426.742 6.316 6.316 0 0 1 1.764 1.27l.216-.18a19.207 19.207 0 0 0 2.908-3.084c3.097 3.273 6.827 5.832 10.208 8.777a.161.161 0 0 0 .242-.029.157.157 0 0 0 .029-.086c.229-3.573.467-7.155.423-10.746-.009-.9-.035-1.8-.088-2.7-.027-.511-.141-.891.238-1.279.309-.309.609-.626.909-.944a127.75 127.75 0 0 0 7.446-8.486c.071-.035.063-.176-.061-.203z" fill="#00B191"/><path d="M102.247 57.944c.095-.765.192-1.53.292-2.294-.585 3.644-.636 7.415-.892 11.093a108.398 108.398 0 0 0 8.006-6.968l-.216.18a6.316 6.316 0 0 0-1.764-1.27 9.101 9.101 0 0 0-5.426-.742zM41.07 42.024c-5.003-.97-10.262-.37-15.14-2.012 0-.009 0-.009-.01-.018-1.87-4.667-3.737-9.337-5.602-14.01a.165.165 0 0 0-.317 0 156.573 156.573 0 0 0-5.074 14.18c-.079.256-.108.442-.344.574a4.19 4.19 0 0 1-.661.247 90.629 90.629 0 0 1-7.199 2.338A87.26 87.26 0 0 1 .14 44.892a.162.162 0 0 0-.07.27 100.577 100.577 0 0 0 12.016 8.65c-.238 1.72-.464 3.44-.677 5.16a9.103 9.103 0 0 1 5.426.742 6.32 6.32 0 0 1 1.764 1.27c.073-.059.145-.12.216-.18a19.195 19.195 0 0 0 2.908-3.084c3.097 3.274 6.827 5.832 10.208 8.777a.163.163 0 0 0 .271-.114c.23-3.574.468-7.156.423-10.747-.008-.9-.035-1.8-.088-2.7-.027-.51-.141-.89.238-1.279.31-.308.61-.626.909-.943a127.643 127.643 0 0 0 7.446-8.487c.071-.035.063-.176-.06-.202z" fill="#00B191"/><path d="M11.41 58.972c.094-.765.191-1.53.29-2.294-.584 3.644-.635 7.415-.89 11.094a108.329 108.329 0 0 0 8.005-6.969c-.072.06-.143.121-.216.18a6.32 6.32 0 0 0-1.764-1.27 9.103 9.103 0 0 0-5.426-.741zM226.265 40.995c-5.002-.97-10.26-.37-15.139-2.011 0-.01 0-.01-.009-.018a9639.753 9639.753 0 0 1-5.603-14.01.163.163 0 0 0-.158-.12.168.168 0 0 0-.1.033.169.169 0 0 0-.059.086 157.043 157.043 0 0 0-5.074 14.181c-.079.256-.108.441-.344.574-.213.1-.434.183-.661.247a90.516 90.516 0 0 1-7.199 2.338 87.258 87.258 0 0 1-6.583 1.568.167.167 0 0 0-.072.042.18.18 0 0 0-.041.073.168.168 0 0 0 .001.083.159.159 0 0 0 .042.072 100.49 100.49 0 0 0 12.017 8.65c-.239 1.72-.464 3.44-.677 5.16a9.103 9.103 0 0 1 5.426.742 6.316 6.316 0 0 1 1.764 1.27l.215-.18a19.167 19.167 0 0 0 2.908-3.084c3.097 3.273 6.827 5.832 10.208 8.777a.165.165 0 0 0 .172.029.163.163 0 0 0 .071-.058.165.165 0 0 0 .028-.086c.23-3.573.468-7.155.423-10.746-.008-.9-.035-1.8-.088-2.7-.026-.511-.141-.891.239-1.279.308-.309.609-.626.908-.944a127.666 127.666 0 0 0 7.447-8.486c.071-.035.062-.176-.062-.203z" fill="#00B191"/><path d="M196.606 57.944c.094-.765.191-1.53.291-2.294-.584 3.644-.636 7.415-.891 11.093a108.38 108.38 0 0 0 8.005-6.968l-.215.18a6.316 6.316 0 0 0-1.764-1.27 9.103 9.103 0 0 0-5.426-.742zM56.828 57.944c.095-.765.192-1.53.292-2.294-.585 3.644-.636 7.415-.892 11.093a108.35 108.35 0 0 0 8.006-6.968l-.215.18a6.32 6.32 0 0 0-1.765-1.27 9.102 9.102 0 0 0-5.426-.742z" fill="#00B191"/><path d="M86.488 40.995c-5.002-.97-10.26-.37-15.14-2.011 0-.009 0-.009-.009-.018-1.87-4.667-3.737-9.338-5.602-14.01a.166.166 0 0 0-.258-.087.165.165 0 0 0-.06.086 156.526 156.526 0 0 0-5.073 14.181c-.079.256-.108.441-.344.574-.213.1-.434.183-.662.247a90.638 90.638 0 0 1-7.199 2.339 87.255 87.255 0 0 1-6.582 1.567.163.163 0 0 0-.07.27 100.6 100.6 0 0 0 12.016 8.65 366.961 366.961 0 0 0-.677 5.16 9.102 9.102 0 0 1 5.426.742 6.32 6.32 0 0 1 1.765 1.27l.215-.18a19.2 19.2 0 0 0 2.908-3.084c1.954 2.066 4.16 3.846 6.372 5.62 0 0 1.319-.294 2.16-.2.862.097 2.108.698 2.108.698.165-2.729.296-5.463.262-8.202-.009-.9-.035-1.8-.088-2.7-.027-.511-.141-.891.238-1.279.309-.309.61-.626.909-.944a127.643 127.643 0 0 0 7.446-8.486c.071-.035.063-.176-.06-.203z" fill="#00B191"/></svg>