<svg xmlns="http://www.w3.org/2000/svg" xmlns:xlink="http://www.w3.org/1999/xlink" width="500" zoomAndPan="magnify" viewBox="0 0 375 374.999991" height="500" preserveAspectRatio="xMidYMid meet" version="1.0"><defs><g/><clipPath id="195264a6c8"><path d="M 185 120 L 221 120 L 221 184.515625 L 185 184.515625 Z M 185 120 " clip-rule="nonzero"/></clipPath><clipPath id="69687dc98d"><path d="M 140.601562 107.265625 L 234.351562 107.265625 L 234.351562 179 L 140.601562 179 Z M 140.601562 107.265625 " clip-rule="nonzero"/></clipPath></defs><g clip-path="url(#195264a6c8)"><path fill="#f4f5ff" d="M 206.519531 161.472656 L 206.519531 155.109375 C 214.492188 153.425781 220.417969 146.402344 220.417969 137.917969 C 220.417969 128.1875 212.589844 120.363281 202.859375 120.363281 C 193.132812 120.363281 185.304688 128.261719 185.304688 137.992188 C 185.304688 146.402344 191.230469 153.5 199.203125 155.179688 L 199.203125 161.546875 C 197.960938 161.839844 197.007812 163.007812 197.007812 164.398438 L 197.007812 181.953125 C 197.007812 183.5625 198.324219 184.878906 199.933594 184.878906 L 205.785156 184.878906 C 207.394531 184.878906 208.710938 183.5625 208.710938 181.953125 L 208.710938 164.324219 C 208.710938 162.933594 207.761719 161.839844 206.519531 161.472656 Z M 188.230469 137.992188 C 188.230469 129.945312 194.8125 123.359375 202.859375 123.359375 C 210.90625 123.359375 217.492188 129.945312 217.492188 137.992188 C 217.492188 146.039062 210.90625 152.621094 202.859375 152.621094 C 194.8125 152.621094 188.230469 146.039062 188.230469 137.992188 Z M 203.59375 155.546875 L 203.59375 161.398438 L 202.128906 161.398438 L 202.128906 155.546875 Z M 205.785156 181.882812 L 199.933594 181.882812 L 199.933594 164.324219 L 205.785156 164.324219 Z M 205.785156 181.882812 " fill-opacity="1" fill-rule="nonzero"/></g><path fill="#f4f5ff" d="M 213.613281 133.382812 C 206.445312 133.527344 199.714844 134.992188 193.9375 137.699219 C 193.714844 137.769531 193.496094 137.84375 193.351562 137.84375 C 192.765625 137.84375 192.253906 137.550781 192.035156 136.964844 C 191.667969 136.234375 192.035156 135.355469 192.765625 134.992188 C 198.398438 132.359375 204.980469 130.894531 211.859375 130.53125 C 210.394531 128.773438 208.417969 127.457031 206.078125 126.796875 C 201.761719 127.53125 197.667969 128.699219 194.007812 130.382812 C 192.253906 132.359375 191.15625 135.066406 191.15625 137.992188 C 191.15625 139.671875 191.523438 141.28125 192.179688 142.746094 C 192.328125 142.527344 192.472656 142.378906 192.691406 142.308594 C 199.054688 139.378906 206.589844 137.769531 214.492188 137.699219 C 214.492188 136.234375 214.199219 134.699219 213.613281 133.382812 Z M 213.613281 133.382812 " fill-opacity="1" fill-rule="nonzero"/><g clip-path="url(#69687dc98d)"><path fill="#f4f5ff" d="M 231.167969 109.535156 C 226.121094 108.070312 220.710938 107.265625 215.078125 107.265625 C 204.617188 107.265625 194.59375 109.972656 187.425781 114.800781 C 180.328125 109.972656 170.382812 107.265625 159.921875 107.265625 C 154.289062 107.265625 148.875 108 143.828125 109.535156 C 142 110.046875 140.683594 111.800781 140.683594 113.703125 L 140.683594 168.933594 C 140.683594 170.324219 141.265625 171.566406 142.363281 172.371094 C 143.460938 173.175781 144.777344 173.542969 146.09375 173.175781 C 150.484375 172.152344 155.09375 171.566406 159.847656 171.566406 C 169.503906 171.566406 178.5 173.761719 185.230469 177.710938 C 185.890625 178.152344 186.695312 178.296875 187.425781 178.296875 C 188.15625 178.296875 188.960938 178.078125 189.621094 177.710938 C 191.011719 176.90625 192.472656 176.175781 194.007812 175.515625 L 194.007812 166.886719 C 193.9375 166.886719 193.9375 166.886719 193.863281 166.957031 C 193.644531 167.03125 193.425781 167.105469 193.277344 167.105469 C 192.691406 167.105469 192.179688 166.8125 191.960938 166.226562 C 191.59375 165.496094 191.960938 164.617188 192.691406 164.253906 C 193.132812 164.03125 193.644531 163.886719 194.082031 163.667969 C 194.230469 162.128906 195.035156 160.667969 196.277344 159.714844 L 196.277344 158.621094 C 195.472656 158.910156 194.742188 159.277344 193.9375 159.570312 C 193.714844 159.644531 193.496094 159.714844 193.351562 159.714844 C 192.765625 159.714844 192.253906 159.425781 192.035156 158.839844 C 191.667969 158.105469 192.035156 157.230469 192.765625 156.863281 C 193.203125 156.644531 193.570312 156.496094 194.007812 156.351562 C 187.058594 153.058594 182.378906 145.964844 182.378906 137.992188 C 182.378906 137.84375 182.378906 137.699219 182.378906 137.625 C 182.160156 137.769531 181.867188 137.84375 181.648438 137.84375 C 181.425781 137.84375 181.207031 137.769531 181.0625 137.699219 C 174.917969 134.84375 167.601562 133.382812 159.921875 133.382812 C 155.96875 133.382812 152.019531 133.820312 148.363281 134.550781 C 147.558594 134.699219 146.828125 134.1875 146.605469 133.457031 C 146.460938 132.652344 146.972656 131.917969 147.703125 131.699219 C 151.582031 130.894531 155.75 130.457031 159.921875 130.457031 C 168.039062 130.457031 175.792969 132.066406 182.304688 135.066406 C 182.453125 135.136719 182.523438 135.210938 182.597656 135.285156 C 183.839844 126.066406 191.15625 118.824219 200.375 117.65625 C 204.980469 116.410156 209.957031 115.753906 215.148438 115.753906 C 219.320312 115.753906 223.414062 116.191406 227.367188 116.996094 C 228.171875 117.144531 228.683594 117.949219 228.464844 118.753906 C 228.242188 119.558594 227.511719 120.070312 226.707031 119.847656 C 222.976562 119.042969 219.101562 118.679688 215.148438 118.679688 C 213.539062 118.679688 211.929688 118.753906 210.394531 118.898438 C 212.882812 119.847656 215.078125 121.3125 216.980469 123.140625 C 220.488281 123.214844 224 123.652344 227.292969 124.382812 C 228.097656 124.53125 228.609375 125.335938 228.390625 126.140625 C 228.242188 126.945312 227.4375 127.457031 226.632812 127.238281 C 224.367188 126.726562 221.953125 126.433594 219.539062 126.214844 C 221.953125 129.578125 223.34375 133.601562 223.34375 137.992188 C 223.34375 138.136719 223.34375 138.210938 223.34375 138.355469 C 224.660156 138.574219 226.050781 138.796875 227.292969 139.015625 C 228.097656 139.160156 228.609375 139.964844 228.390625 140.769531 C 228.171875 141.574219 227.4375 142.085938 226.632812 141.867188 C 225.464844 141.648438 224.21875 141.429688 223.050781 141.210938 C 222.832031 142.746094 222.390625 144.207031 221.804688 145.597656 C 221.804688 145.523438 221.878906 145.453125 221.878906 145.378906 C 223.707031 145.597656 225.539062 145.890625 227.292969 146.257812 C 228.097656 146.402344 228.609375 147.207031 228.390625 148.011719 C 228.171875 148.816406 227.4375 149.328125 226.632812 149.109375 C 224.660156 148.671875 222.609375 148.378906 220.488281 148.160156 C 219.613281 149.695312 218.515625 151.085938 217.269531 152.328125 C 220.636719 152.476562 224 152.839844 227.21875 153.5 C 228.023438 153.644531 228.535156 154.449219 228.316406 155.253906 C 228.097656 156.058594 227.367188 156.570312 226.5625 156.351562 C 222.832031 155.546875 218.953125 155.179688 215.003906 155.179688 C 214.566406 155.179688 214.050781 155.179688 213.613281 155.179688 C 212.296875 156.058594 210.832031 156.71875 209.296875 157.230469 L 209.296875 159.644531 C 209.371094 159.714844 209.445312 159.789062 209.515625 159.863281 C 211.347656 159.714844 213.175781 159.644531 215.003906 159.644531 C 219.171875 159.644531 223.269531 160.082031 227.21875 160.886719 C 228.023438 161.035156 228.535156 161.839844 228.316406 162.644531 C 228.097656 163.449219 227.367188 163.960938 226.5625 163.738281 C 222.832031 162.933594 218.953125 162.570312 215.003906 162.570312 C 213.761719 162.570312 212.515625 162.644531 211.273438 162.714844 C 211.417969 163.226562 211.492188 163.738281 211.492188 164.324219 L 211.492188 171.714844 C 212.664062 171.640625 213.832031 171.640625 215.003906 171.640625 C 219.757812 171.640625 224.441406 172.152344 228.757812 173.25 C 230.074219 173.542969 231.460938 173.25 232.488281 172.445312 C 233.582031 171.640625 234.167969 170.324219 234.167969 169.007812 L 234.167969 113.703125 C 234.316406 111.800781 233 110.046875 231.167969 109.535156 Z M 182.964844 166.226562 C 182.742188 166.738281 182.160156 167.105469 181.648438 167.105469 C 181.425781 167.105469 181.207031 167.03125 181.0625 166.957031 C 174.917969 164.105469 167.601562 162.644531 159.921875 162.644531 C 155.96875 162.644531 152.019531 163.082031 148.363281 163.8125 C 147.558594 163.960938 146.828125 163.449219 146.605469 162.714844 C 146.460938 161.910156 146.972656 161.179688 147.703125 160.960938 C 151.582031 160.15625 155.75 159.714844 159.921875 159.714844 C 168.039062 159.714844 175.792969 161.324219 182.304688 164.324219 C 182.964844 164.617188 183.328125 165.496094 182.964844 166.226562 Z M 182.964844 158.910156 C 182.742188 159.425781 182.160156 159.789062 181.648438 159.789062 C 181.425781 159.789062 181.207031 159.714844 181.0625 159.644531 C 174.917969 156.789062 167.601562 155.328125 159.921875 155.328125 C 155.96875 155.328125 152.019531 155.765625 148.363281 156.496094 C 147.558594 156.644531 146.828125 156.132812 146.605469 155.402344 C 146.460938 154.597656 146.972656 153.863281 147.703125 153.644531 C 151.582031 152.839844 155.75 152.402344 159.921875 152.402344 C 168.039062 152.402344 175.792969 154.011719 182.304688 157.011719 C 182.964844 157.300781 183.328125 158.179688 182.964844 158.910156 Z M 182.964844 151.597656 C 182.742188 152.109375 182.160156 152.476562 181.648438 152.476562 C 181.425781 152.476562 181.207031 152.402344 181.0625 152.328125 C 174.917969 149.476562 167.601562 148.011719 159.921875 148.011719 C 155.96875 148.011719 152.019531 148.453125 148.363281 149.183594 C 147.558594 149.328125 146.828125 148.816406 146.605469 148.085938 C 146.460938 147.28125 146.972656 146.550781 147.703125 146.328125 C 151.582031 145.523438 155.75 145.085938 159.921875 145.085938 C 168.039062 145.085938 175.792969 146.695312 182.304688 149.695312 C 182.964844 149.988281 183.328125 150.867188 182.964844 151.597656 Z M 147.703125 139.015625 C 151.582031 138.210938 155.75 137.769531 159.921875 137.769531 C 168.039062 137.769531 175.792969 139.378906 182.304688 142.378906 C 183.035156 142.746094 183.328125 143.625 183.035156 144.355469 C 182.816406 144.867188 182.230469 145.234375 181.71875 145.234375 C 181.5 145.234375 181.28125 145.160156 181.132812 145.085938 C 174.988281 142.234375 167.675781 140.769531 159.992188 140.769531 C 156.042969 140.769531 152.09375 141.210938 148.4375 141.941406 C 147.632812 142.085938 146.898438 141.574219 146.679688 140.84375 C 146.386719 139.964844 146.898438 139.160156 147.703125 139.015625 Z M 182.964844 129.652344 C 182.742188 130.164062 182.160156 130.53125 181.648438 130.53125 C 181.425781 130.53125 181.207031 130.457031 181.0625 130.382812 C 174.917969 127.53125 167.601562 126.066406 159.921875 126.066406 C 155.96875 126.066406 152.019531 126.507812 148.363281 127.238281 C 147.558594 127.382812 146.828125 126.871094 146.605469 126.140625 C 146.460938 125.335938 146.972656 124.605469 147.703125 124.382812 C 151.582031 123.578125 155.75 123.140625 159.921875 123.140625 C 168.039062 123.140625 175.792969 124.75 182.304688 127.75 C 182.964844 128.042969 183.328125 128.921875 182.964844 129.652344 Z M 182.964844 122.335938 C 182.742188 122.847656 182.160156 123.214844 181.648438 123.214844 C 181.425781 123.214844 181.207031 123.140625 181.0625 123.066406 C 174.917969 120.214844 167.601562 118.753906 159.921875 118.753906 C 155.96875 118.753906 152.019531 119.191406 148.363281 119.921875 C 147.558594 120.070312 146.828125 119.558594 146.605469 118.824219 C 146.460938 118.019531 146.972656 117.289062 147.703125 117.070312 C 151.582031 116.265625 155.75 115.824219 159.921875 115.824219 C 168.039062 115.824219 175.792969 117.433594 182.304688 120.433594 C 182.964844 120.726562 183.328125 121.605469 182.964844 122.335938 Z M 182.964844 122.335938 " fill-opacity="1" fill-rule="nonzero"/></g><path fill="#f4f5ff" d="M 214.273438 140.699219 C 206.882812 140.769531 199.859375 142.308594 194.007812 145.011719 C 193.863281 145.085938 193.789062 145.085938 193.644531 145.160156 C 194.519531 146.328125 195.617188 147.28125 196.933594 148.085938 C 201.617188 146.476562 206.8125 145.453125 212.222656 145.234375 C 213.101562 143.84375 213.832031 142.308594 214.273438 140.699219 Z M 214.273438 140.699219 " fill-opacity="1" fill-rule="nonzero"/><g fill="#f4f5ff" fill-opacity="1"><g transform="translate(72.180002, 228.911252)"><g><path d="M 12.558594 -26.554688 C 11.746094 -26.554688 11.027344 -26.285156 10.398438 -25.835938 C 9.765625 -25.339844 9.316406 -24.753906 9.046875 -24.035156 L 1.261719 -3.105469 C 1.171875 -2.835938 1.125 -2.519531 1.125 -2.25 C 1.125 -1.621094 1.304688 -1.082031 1.753906 -0.628906 C 2.207031 -0.179688 2.746094 0 3.375 0 C 4.367188 0 5.085938 -0.449219 5.492188 -1.351562 L 7.246094 -6.03125 L 18.003906 -6.03125 L 19.757812 -1.351562 C 20.121094 -0.449219 20.839844 0 21.875 0 C 22.503906 0 23 -0.179688 23.449219 -0.628906 C 23.898438 -1.082031 24.125 -1.621094 24.125 -2.25 C 24.125 -2.519531 24.078125 -2.835938 23.988281 -3.105469 L 16.203125 -24.035156 C 15.933594 -24.753906 15.4375 -25.386719 14.808594 -25.835938 C 14.132812 -26.285156 13.367188 -26.554688 12.558594 -26.554688 Z M 8.820312 -10.261719 L 12.601562 -20.480469 L 16.429688 -10.261719 Z M 8.820312 -10.261719 "/></g></g></g><g fill="#f4f5ff" fill-opacity="1"><g transform="translate(96.980167, 228.911252)"><g/></g></g><g fill="#f4f5ff" fill-opacity="1"><g transform="translate(105.486936, 228.911252)"><g><path d="M 18.769531 3.960938 L 16.070312 0.226562 C 17.105469 0.136719 18.140625 -0.046875 19.128906 -0.359375 C 20.121094 -0.675781 21.109375 -1.171875 22.191406 -1.890625 C 23.226562 -2.566406 24.125 -3.421875 24.890625 -4.410156 C 25.609375 -5.402344 26.242188 -6.707031 26.734375 -8.328125 C 27.230469 -9.902344 27.5 -11.703125 27.5 -13.726562 C 27.5 -16.023438 27.09375 -18.046875 26.332031 -19.804688 C 25.566406 -21.515625 24.53125 -22.863281 23.269531 -23.855469 C 22.007812 -24.84375 20.660156 -25.566406 19.21875 -26.058594 C 17.777344 -26.511719 16.292969 -26.78125 14.761719 -26.78125 C 13.234375 -26.78125 11.746094 -26.511719 10.308594 -26.058594 C 8.867188 -25.566406 7.472656 -24.84375 6.210938 -23.855469 C 4.949219 -22.863281 3.914062 -21.515625 3.152344 -19.804688 C 2.386719 -18.046875 2.027344 -16.023438 2.027344 -13.726562 C 2.027344 -9.945312 2.746094 -7.019531 4.277344 -4.90625 C 5.804688 -2.789062 7.742188 -1.304688 10.082031 -0.496094 L 15.257812 6.390625 C 15.707031 7.019531 16.292969 7.335938 17.011719 7.335938 C 17.597656 7.335938 18.09375 7.15625 18.542969 6.707031 C 18.949219 6.257812 19.175781 5.761719 19.175781 5.175781 C 19.175781 4.816406 19.039062 4.410156 18.769531 3.960938 Z M 14.761719 -4.140625 C 13.773438 -4.140625 12.917969 -4.230469 12.109375 -4.457031 C 11.296875 -4.679688 10.441406 -5.085938 9.542969 -5.714844 C 8.640625 -6.347656 7.921875 -7.292969 7.382812 -8.640625 C 6.839844 -9.992188 6.617188 -11.613281 6.617188 -13.59375 C 6.617188 -19.445312 9.316406 -22.371094 14.761719 -22.371094 C 20.164062 -22.371094 22.910156 -19.445312 22.910156 -13.59375 C 22.910156 -11.613281 22.640625 -9.992188 22.101562 -8.640625 C 21.558594 -7.292969 20.882812 -6.347656 19.984375 -5.714844 C 19.085938 -5.085938 18.230469 -4.679688 17.417969 -4.457031 C 16.609375 -4.230469 15.707031 -4.140625 14.761719 -4.140625 Z M 14.761719 -4.140625 "/></g></g></g><g fill="#f4f5ff" fill-opacity="1"><g transform="translate(134.562988, 228.911252)"><g><path d="M 24.171875 -12.0625 L 24.171875 -24.261719 C 24.171875 -24.890625 23.945312 -25.429688 23.496094 -25.878906 C 23.042969 -26.332031 22.503906 -26.554688 21.875 -26.554688 C 21.246094 -26.554688 20.703125 -26.332031 20.253906 -25.878906 C 19.804688 -25.429688 19.578125 -24.890625 19.578125 -24.261719 L 19.578125 -12.421875 C 19.578125 -6.886719 17.507812 -4.140625 13.414062 -4.140625 C 9.316406 -4.140625 7.292969 -6.886719 7.292969 -12.421875 L 7.292969 -24.261719 C 7.292969 -24.890625 7.066406 -25.429688 6.617188 -25.878906 C 6.167969 -26.332031 5.625 -26.554688 4.996094 -26.554688 C 4.367188 -26.554688 3.824219 -26.332031 3.375 -25.878906 C 2.925781 -25.429688 2.699219 -24.890625 2.699219 -24.261719 L 2.699219 -12.0625 C 2.699219 -3.824219 6.257812 0.269531 13.414062 0.269531 C 20.570312 0.269531 24.171875 -3.824219 24.171875 -12.0625 Z M 24.171875 -12.0625 "/></g></g></g><g fill="#f4f5ff" fill-opacity="1"><g transform="translate(160.983483, 228.911252)"><g><path d="M 2.699219 -24.261719 L 2.699219 -2.296875 C 2.699219 -1.664062 2.925781 -1.125 3.375 -0.675781 C 3.824219 -0.226562 4.367188 0 4.996094 0 C 5.625 0 6.167969 -0.226562 6.617188 -0.675781 C 7.066406 -1.125 7.292969 -1.664062 7.292969 -2.296875 L 7.292969 -24.261719 C 7.292969 -24.890625 7.066406 -25.429688 6.617188 -25.878906 C 6.167969 -26.332031 5.625 -26.554688 4.996094 -26.554688 C 4.367188 -26.554688 3.824219 -26.332031 3.375 -25.878906 C 2.925781 -25.429688 2.699219 -24.890625 2.699219 -24.261719 Z M 2.699219 -24.261719 "/></g></g></g><g fill="#f4f5ff" fill-opacity="1"><g transform="translate(170.525469, 228.911252)"><g/></g></g><g fill="#f4f5ff" fill-opacity="1"><g transform="translate(179.032238, 228.911252)"><g><path d="M 2.699219 -24.394531 L 2.699219 -2.160156 C 2.699219 -1.53125 2.878906 -1.035156 3.332031 -0.628906 C 3.734375 -0.179688 4.230469 0 4.859375 0 L 18.410156 0 C 18.949219 0 19.445312 -0.179688 19.894531 -0.628906 C 20.34375 -1.035156 20.570312 -1.53125 20.570312 -2.160156 C 20.570312 -2.746094 20.34375 -3.242188 19.894531 -3.691406 C 19.445312 -4.097656 18.949219 -4.320312 18.410156 -4.320312 L 7.292969 -4.320312 L 7.292969 -10.621094 L 15.976562 -10.621094 C 16.519531 -10.621094 17.011719 -10.800781 17.464844 -11.253906 C 17.914062 -11.65625 18.140625 -12.152344 18.140625 -12.78125 C 18.140625 -13.367188 17.914062 -13.863281 17.464844 -14.3125 C 17.011719 -14.71875 16.519531 -14.941406 15.976562 -14.941406 L 7.292969 -14.941406 L 7.292969 -22.234375 L 18.410156 -22.234375 C 18.949219 -22.234375 19.445312 -22.414062 19.894531 -22.863281 C 20.34375 -23.269531 20.570312 -23.765625 20.570312 -24.394531 C 20.570312 -24.980469 20.34375 -25.476562 19.894531 -25.925781 C 19.445312 -26.332031 18.949219 -26.554688 18.410156 -26.554688 L 4.859375 -26.554688 C 4.230469 -26.554688 3.734375 -26.332031 3.332031 -25.925781 C 2.878906 -25.476562 2.699219 -24.980469 2.699219 -24.394531 Z M 2.699219 -24.394531 "/></g></g></g><g fill="#f4f5ff" fill-opacity="1"><g transform="translate(201.401897, 228.911252)"><g><path d="M 17.328125 -21.875 C 17.957031 -21.875 18.453125 -22.054688 18.902344 -22.503906 C 19.355469 -22.910156 19.578125 -23.449219 19.578125 -24.078125 C 19.578125 -24.574219 19.398438 -25.023438 19.039062 -25.429688 C 18.679688 -25.789062 18.273438 -26.058594 17.824219 -26.242188 C 16.429688 -26.601562 14.492188 -26.78125 12.0625 -26.78125 C 10.53125 -26.78125 9.226562 -26.644531 8.101562 -26.464844 C 6.976562 -26.285156 5.894531 -25.925781 4.859375 -25.386719 C 3.78125 -24.84375 2.96875 -24.078125 2.429688 -23 C 1.84375 -21.917969 1.574219 -20.570312 1.574219 -19.039062 C 1.574219 -17.554688 2.117188 -16.25 3.195312 -15.167969 C 4.277344 -14.042969 5.582031 -13.1875 7.15625 -12.558594 C 8.6875 -11.925781 10.261719 -11.386719 11.792969 -10.890625 C 13.324219 -10.351562 14.671875 -9.8125 15.753906 -9.226562 C 16.832031 -8.597656 17.375 -7.921875 17.375 -7.203125 C 17.375 -5.132812 15.125 -4.140625 10.667969 -4.140625 C 8.867188 -4.140625 7.019531 -4.457031 5.042969 -5.132812 C 4.769531 -5.175781 4.589844 -5.222656 4.5 -5.222656 C 3.960938 -5.222656 3.511719 -4.996094 3.152344 -4.636719 C 2.789062 -4.230469 2.609375 -3.78125 2.609375 -3.242188 C 2.609375 -2.339844 2.96875 -1.753906 3.691406 -1.394531 C 6.121094 -0.269531 8.820312 0.269531 11.792969 0.269531 C 14.898438 0.269531 17.375 -0.316406 19.21875 -1.574219 C 21.019531 -2.835938 21.964844 -4.726562 21.964844 -7.246094 C 21.964844 -8.730469 21.425781 -10.035156 20.34375 -11.164062 C 19.265625 -12.289062 17.914062 -13.1875 16.382812 -13.816406 C 14.808594 -14.449219 13.234375 -15.03125 11.703125 -15.574219 C 10.171875 -16.113281 8.867188 -16.652344 7.785156 -17.285156 C 6.707031 -17.914062 6.167969 -18.589844 6.167969 -19.355469 C 6.167969 -20.027344 6.347656 -20.570312 6.75 -21.019531 C 7.113281 -21.46875 7.695312 -21.785156 8.417969 -21.964844 C 9.136719 -22.144531 9.8125 -22.234375 10.351562 -22.28125 C 10.890625 -22.324219 11.613281 -22.371094 12.46875 -22.371094 C 13.816406 -22.371094 15.4375 -22.191406 17.328125 -21.875 Z M 17.328125 -21.875 "/></g></g></g><g fill="#f4f5ff" fill-opacity="1"><g transform="translate(224.491699, 228.911252)"><g><path d="M 9.40625 -22.144531 L 9.40625 -2.296875 C 9.40625 -1.664062 9.632812 -1.125 10.082031 -0.675781 C 10.53125 -0.226562 11.074219 0 11.703125 0 C 12.332031 0 12.871094 -0.226562 13.324219 -0.675781 C 13.773438 -1.125 13.996094 -1.664062 13.996094 -2.296875 L 13.996094 -22.144531 L 19.625 -22.144531 C 20.210938 -22.144531 20.703125 -22.324219 21.15625 -22.773438 C 21.605469 -23.226562 21.828125 -23.71875 21.828125 -24.351562 C 21.828125 -24.933594 21.605469 -25.429688 21.15625 -25.878906 C 20.703125 -26.332031 20.210938 -26.554688 19.625 -26.554688 L 3.78125 -26.554688 C 3.152344 -26.554688 2.65625 -26.332031 2.207031 -25.878906 C 1.753906 -25.429688 1.574219 -24.933594 1.574219 -24.351562 C 1.574219 -23.71875 1.753906 -23.226562 2.207031 -22.773438 C 2.65625 -22.324219 3.152344 -22.144531 3.78125 -22.144531 Z M 9.40625 -22.144531 "/></g></g></g><g fill="#f4f5ff" fill-opacity="1"><g transform="translate(247.446471, 228.911252)"><g/></g></g><g fill="#f4f5ff" fill-opacity="1"><g transform="translate(255.95324, 228.911252)"><g><path d="M 14.71875 0.269531 C 17.375 0.269531 19.667969 -0.269531 21.605469 -1.441406 C 22.324219 -1.800781 22.683594 -2.429688 22.683594 -3.285156 C 22.683594 -3.824219 22.460938 -4.320312 22.007812 -4.769531 C 21.558594 -5.175781 21.0625 -5.402344 20.523438 -5.402344 C 20.210938 -5.402344 19.894531 -5.3125 19.625 -5.175781 C 18.230469 -4.457031 16.5625 -4.140625 14.671875 -4.140625 C 13.90625 -4.140625 13.1875 -4.1875 12.511719 -4.320312 C 11.835938 -4.410156 11.117188 -4.679688 10.308594 -5.085938 C 9.496094 -5.492188 8.777344 -6.03125 8.191406 -6.660156 C 7.605469 -7.292969 7.113281 -8.238281 6.75 -9.40625 C 6.347656 -10.578125 6.167969 -11.972656 6.167969 -13.59375 C 6.167969 -15.304688 6.390625 -16.742188 6.886719 -17.957031 C 7.382812 -19.175781 8.058594 -20.074219 8.957031 -20.703125 C 9.8125 -21.289062 10.710938 -21.695312 11.613281 -21.964844 C 12.511719 -22.234375 13.546875 -22.371094 14.671875 -22.371094 C 16.5625 -22.371094 18.230469 -22.007812 19.625 -21.335938 C 19.894531 -21.15625 20.210938 -21.109375 20.523438 -21.109375 C 21.0625 -21.109375 21.558594 -21.289062 22.007812 -21.738281 C 22.460938 -22.144531 22.683594 -22.640625 22.683594 -23.226562 C 22.683594 -24.035156 22.324219 -24.664062 21.605469 -25.070312 C 19.667969 -26.195312 17.375 -26.78125 14.71875 -26.78125 C 13.144531 -26.78125 11.613281 -26.511719 10.128906 -26.058594 C 8.640625 -25.566406 7.246094 -24.84375 5.941406 -23.855469 C 4.589844 -22.863281 3.554688 -21.515625 2.746094 -19.804688 C 1.933594 -18.046875 1.574219 -16.023438 1.574219 -13.726562 C 1.574219 -11.523438 1.84375 -9.585938 2.476562 -7.875 C 3.105469 -6.167969 3.871094 -4.816406 4.769531 -3.824219 C 5.671875 -2.835938 6.75 -1.980469 8.011719 -1.351562 C 9.226562 -0.71875 10.398438 -0.269531 11.476562 -0.046875 C 12.558594 0.179688 13.636719 0.269531 14.71875 0.269531 Z M 14.71875 0.269531 "/></g></g></g><g fill="#f4f5ff" fill-opacity="1"><g transform="translate(279.988235, 228.911252)"><g><path d="M 2.699219 -24.394531 L 2.699219 -2.160156 C 2.699219 -1.53125 2.878906 -1.035156 3.332031 -0.628906 C 3.734375 -0.179688 4.230469 0 4.859375 0 L 18.410156 0 C 18.949219 0 19.445312 -0.179688 19.894531 -0.628906 C 20.34375 -1.035156 20.570312 -1.53125 20.570312 -2.160156 C 20.570312 -2.746094 20.34375 -3.242188 19.894531 -3.691406 C 19.445312 -4.097656 18.949219 -4.320312 18.410156 -4.320312 L 7.292969 -4.320312 L 7.292969 -10.621094 L 15.976562 -10.621094 C 16.519531 -10.621094 17.011719 -10.800781 17.464844 -11.253906 C 17.914062 -11.65625 18.140625 -12.152344 18.140625 -12.78125 C 18.140625 -13.367188 17.914062 -13.863281 17.464844 -14.3125 C 17.011719 -14.71875 16.519531 -14.941406 15.976562 -14.941406 L 7.292969 -14.941406 L 7.292969 -22.234375 L 18.410156 -22.234375 C 18.949219 -22.234375 19.445312 -22.414062 19.894531 -22.863281 C 20.34375 -23.269531 20.570312 -23.765625 20.570312 -24.394531 C 20.570312 -24.980469 20.34375 -25.476562 19.894531 -25.925781 C 19.445312 -26.332031 18.949219 -26.554688 18.410156 -26.554688 L 4.859375 -26.554688 C 4.230469 -26.554688 3.734375 -26.332031 3.332031 -25.925781 C 2.878906 -25.476562 2.699219 -24.980469 2.699219 -24.394531 Z M 2.699219 -24.394531 "/></g></g></g><g fill="#f4f5ff" fill-opacity="1"><g transform="translate(104.641517, 263.167305)"><g><path d="M 3.015625 -7.742188 L 7.910156 -0.558594 C 8.171875 -0.1875 8.5625 0 9.066406 0 C 9.417969 0 9.714844 -0.113281 9.976562 -0.371094 C 10.238281 -0.632812 10.367188 -0.929688 10.367188 -1.304688 L 10.367188 -10.03125 C 10.367188 -10.292969 10.273438 -10.515625 10.089844 -10.703125 C 9.902344 -10.890625 9.679688 -10.984375 9.417969 -10.984375 C 9.160156 -10.984375 8.933594 -10.890625 8.75 -10.703125 C 8.5625 -10.515625 8.46875 -10.292969 8.46875 -10.03125 L 8.46875 -3.109375 L 3.5 -10.425781 C 3.21875 -10.796875 2.867188 -10.984375 2.417969 -10.984375 C 2.046875 -10.984375 1.75 -10.851562 1.488281 -10.589844 C 1.230469 -10.332031 1.117188 -10.03125 1.117188 -9.679688 L 1.117188 -0.949219 C 1.117188 -0.6875 1.210938 -0.464844 1.394531 -0.277344 C 1.582031 -0.09375 1.804688 0 2.066406 0 C 2.328125 0 2.550781 -0.09375 2.734375 -0.277344 C 2.921875 -0.464844 3.015625 -0.6875 3.015625 -0.949219 Z M 3.015625 -7.742188 "/></g></g></g><g fill="#f4f5ff" fill-opacity="1"><g transform="translate(131.013222, 263.167305)"><g><path d="M 9.996094 -4.988281 L 9.996094 -10.03125 C 9.996094 -10.292969 9.902344 -10.515625 9.714844 -10.703125 C 9.53125 -10.890625 9.308594 -10.984375 9.046875 -10.984375 C 8.785156 -10.984375 8.5625 -10.890625 8.375 -10.703125 C 8.191406 -10.515625 8.097656 -10.292969 8.097656 -10.03125 L 8.097656 -5.136719 C 8.097656 -2.847656 7.242188 -1.710938 5.546875 -1.710938 C 3.851562 -1.710938 3.015625 -2.847656 3.015625 -5.136719 L 3.015625 -10.03125 C 3.015625 -10.292969 2.921875 -10.515625 2.734375 -10.703125 C 2.550781 -10.890625 2.328125 -10.984375 2.066406 -10.984375 C 1.804688 -10.984375 1.582031 -10.890625 1.394531 -10.703125 C 1.210938 -10.515625 1.117188 -10.292969 1.117188 -10.03125 L 1.117188 -4.988281 C 1.117188 -1.582031 2.585938 0.113281 5.546875 0.113281 C 8.507812 0.113281 9.996094 -1.582031 9.996094 -4.988281 Z M 9.996094 -4.988281 "/></g></g></g><g fill="#f4f5ff" fill-opacity="1"><g transform="translate(157.012866, 263.167305)"><g><path d="M 6.292969 -2.363281 C 6.757812 -2.363281 7.128906 -2.550781 7.410156 -2.960938 L 9.566406 -6.347656 L 9.566406 -0.949219 C 9.566406 -0.6875 9.660156 -0.464844 9.847656 -0.277344 C 10.03125 -0.09375 10.257812 0 10.515625 0 C 10.777344 0 11 -0.09375 11.1875 -0.277344 C 11.375 -0.464844 11.464844 -0.6875 11.464844 -0.949219 L 11.464844 -10.164062 C 11.464844 -10.386719 11.375 -10.574219 11.222656 -10.742188 C 11.058594 -10.890625 10.871094 -10.984375 10.648438 -10.984375 C 10.347656 -10.984375 10.125 -10.851562 9.957031 -10.628906 L 6.292969 -4.710938 L 2.625 -10.628906 C 2.4375 -10.851562 2.214844 -10.984375 1.9375 -10.984375 C 1.710938 -10.984375 1.507812 -10.890625 1.359375 -10.742188 C 1.191406 -10.574219 1.117188 -10.386719 1.117188 -10.164062 L 1.117188 -0.949219 C 1.117188 -0.6875 1.210938 -0.464844 1.394531 -0.277344 C 1.582031 -0.09375 1.804688 0 2.066406 0 C 2.328125 0 2.550781 -0.09375 2.734375 -0.277344 C 2.921875 -0.464844 3.015625 -0.6875 3.015625 -0.949219 L 3.015625 -6.347656 L 5.175781 -2.960938 C 5.433594 -2.550781 5.808594 -2.363281 6.292969 -2.363281 Z M 6.292969 -2.363281 "/></g></g></g><g fill="#f4f5ff" fill-opacity="1"><g transform="translate(184.482157, 263.167305)"><g><path d="M 1.117188 -10.089844 L 1.117188 -0.894531 C 1.117188 -0.632812 1.191406 -0.429688 1.378906 -0.261719 C 1.546875 -0.0742188 1.75 0 2.011719 0 L 7.613281 0 C 7.835938 0 8.042969 -0.0742188 8.226562 -0.261719 C 8.414062 -0.429688 8.507812 -0.632812 8.507812 -0.894531 C 8.507812 -1.136719 8.414062 -1.339844 8.226562 -1.527344 C 8.042969 -1.695312 7.835938 -1.785156 7.613281 -1.785156 L 3.015625 -1.785156 L 3.015625 -4.394531 L 6.609375 -4.394531 C 6.832031 -4.394531 7.035156 -4.46875 7.222656 -4.652344 C 7.410156 -4.820312 7.5 -5.027344 7.5 -5.285156 C 7.5 -5.527344 7.410156 -5.734375 7.222656 -5.917969 C 7.035156 -6.085938 6.832031 -6.179688 6.609375 -6.179688 L 3.015625 -6.179688 L 3.015625 -9.195312 L 7.613281 -9.195312 C 7.835938 -9.195312 8.042969 -9.269531 8.226562 -9.457031 C 8.414062 -9.625 8.507812 -9.828125 8.507812 -10.089844 C 8.507812 -10.332031 8.414062 -10.535156 8.226562 -10.722656 C 8.042969 -10.890625 7.835938 -10.984375 7.613281 -10.984375 L 2.011719 -10.984375 C 1.75 -10.984375 1.546875 -10.890625 1.378906 -10.722656 C 1.191406 -10.535156 1.117188 -10.332031 1.117188 -10.089844 Z M 1.117188 -10.089844 "/></g></g></g><g fill="#f4f5ff" fill-opacity="1"><g transform="translate(208.807509, 263.167305)"><g><path d="M 9.175781 -1.246094 L 9.007812 -1.75 C 8.785156 -2.382812 8.582031 -2.886719 8.394531 -3.257812 C 8.191406 -3.609375 7.929688 -3.945312 7.59375 -4.261719 C 7.96875 -4.335938 8.285156 -4.523438 8.542969 -4.785156 C 8.804688 -5.042969 8.992188 -5.34375 9.101562 -5.675781 C 9.214844 -6.011719 9.308594 -6.308594 9.363281 -6.609375 C 9.398438 -6.90625 9.4375 -7.183594 9.4375 -7.484375 C 9.4375 -8.097656 9.324219 -8.636719 9.101562 -9.121094 C 8.878906 -9.585938 8.601562 -9.957031 8.246094 -10.21875 C 7.890625 -10.480469 7.519531 -10.664062 7.128906 -10.796875 C 6.738281 -10.90625 6.347656 -10.984375 5.9375 -10.984375 L 2.066406 -10.984375 C 1.804688 -10.984375 1.582031 -10.890625 1.394531 -10.703125 C 1.210938 -10.515625 1.117188 -10.292969 1.117188 -10.03125 L 1.117188 -0.949219 C 1.117188 -0.6875 1.210938 -0.464844 1.394531 -0.277344 C 1.582031 -0.09375 1.804688 0 2.066406 0 C 2.328125 0 2.550781 -0.09375 2.734375 -0.277344 C 2.921875 -0.464844 3.015625 -0.6875 3.015625 -0.949219 L 3.015625 -3.777344 L 5.15625 -3.777344 C 5.9375 -3.777344 6.535156 -3.164062 6.941406 -1.953125 L 7.390625 -0.632812 C 7.539062 -0.203125 7.816406 0 8.265625 0 C 8.523438 0 8.765625 -0.0742188 8.953125 -0.261719 C 9.140625 -0.445312 9.234375 -0.671875 9.234375 -0.929688 C 9.234375 -1.042969 9.214844 -1.136719 9.175781 -1.246094 Z M 5.917969 -5.585938 L 3.015625 -5.585938 L 3.015625 -9.195312 L 5.917969 -9.195312 C 7 -9.195312 7.539062 -8.601562 7.539062 -7.425781 C 7.539062 -6.980469 7.484375 -6.625 7.410156 -6.367188 C 7.316406 -6.105469 7.183594 -5.917969 7 -5.808594 C 6.8125 -5.695312 6.644531 -5.640625 6.496094 -5.621094 C 6.347656 -5.585938 6.160156 -5.585938 5.917969 -5.585938 Z M 5.917969 -5.585938 "/></g></g></g><g fill="#f4f5ff" fill-opacity="1"><g transform="translate(233.876993, 263.167305)"><g><path d="M 6.105469 0.113281 C 6.550781 0.113281 6.980469 0.0742188 7.425781 -0.0195312 C 7.875 -0.113281 8.339844 -0.296875 8.824219 -0.558594 C 9.308594 -0.820312 9.714844 -1.171875 10.089844 -1.582031 C 10.460938 -1.992188 10.757812 -2.550781 11 -3.257812 C 11.242188 -3.964844 11.375 -4.765625 11.375 -5.675781 C 11.375 -6.625 11.207031 -7.464844 10.890625 -8.191406 C 10.574219 -8.898438 10.144531 -9.457031 9.625 -9.867188 C 9.101562 -10.273438 8.542969 -10.574219 7.949219 -10.777344 C 7.351562 -10.964844 6.738281 -11.074219 6.105469 -11.074219 C 5.472656 -11.074219 4.859375 -10.964844 4.261719 -10.777344 C 3.667969 -10.574219 3.089844 -10.273438 2.570312 -9.867188 C 2.046875 -9.457031 1.621094 -8.898438 1.304688 -8.191406 C 0.988281 -7.464844 0.835938 -6.625 0.835938 -5.675781 C 0.835938 -4.765625 0.949219 -3.964844 1.191406 -3.257812 C 1.433594 -2.550781 1.730469 -1.992188 2.101562 -1.582031 C 2.476562 -1.171875 2.902344 -0.820312 3.386719 -0.558594 C 3.871094 -0.296875 4.320312 -0.113281 4.765625 -0.0195312 C 5.210938 0.0742188 5.660156 0.113281 6.105469 0.113281 Z M 6.105469 -1.710938 C 5.695312 -1.710938 5.34375 -1.75 5.007812 -1.84375 C 4.671875 -1.9375 4.320312 -2.101562 3.945312 -2.363281 C 3.574219 -2.625 3.277344 -3.015625 3.054688 -3.574219 C 2.828125 -4.132812 2.734375 -4.800781 2.734375 -5.621094 C 2.734375 -8.042969 3.851562 -9.25 6.105469 -9.25 C 8.339844 -9.25 9.476562 -8.042969 9.476562 -5.621094 C 9.476562 -4.800781 9.363281 -4.132812 9.140625 -3.574219 C 8.917969 -3.015625 8.636719 -2.625 8.265625 -2.363281 C 7.890625 -2.101562 7.539062 -1.9375 7.203125 -1.84375 C 6.867188 -1.75 6.496094 -1.710938 6.105469 -1.710938 Z M 6.105469 -1.710938 "/></g></g></g><g fill="#f4f5ff" fill-opacity="1"><g transform="translate(260.974218, 263.167305)"><g><path d="M 1.730469 -10.703125 C 1.546875 -10.628906 1.394531 -10.515625 1.285156 -10.367188 C 1.171875 -10.21875 1.117188 -10.03125 1.117188 -9.847656 C 1.117188 -9.605469 1.191406 -9.398438 1.378906 -9.234375 C 1.546875 -9.046875 1.75 -8.972656 1.992188 -8.972656 C 2.847656 -9.160156 3.59375 -9.25 4.226562 -9.25 C 5.640625 -9.25 6.367188 -8.785156 6.367188 -7.855469 C 6.367188 -7.390625 6.160156 -7.019531 5.769531 -6.757812 C 5.359375 -6.476562 4.671875 -6.199219 3.703125 -5.9375 C 3.480469 -5.882812 3.3125 -5.769531 3.164062 -5.601562 C 3.015625 -5.417969 2.960938 -5.230469 2.960938 -5.007812 L 2.960938 -3.257812 C 2.960938 -2.996094 3.054688 -2.773438 3.238281 -2.585938 C 3.425781 -2.402344 3.648438 -2.308594 3.910156 -2.308594 C 4.167969 -2.308594 4.394531 -2.402344 4.578125 -2.585938 C 4.765625 -2.773438 4.859375 -2.996094 4.859375 -3.257812 L 4.859375 -4.46875 C 7.128906 -4.875 8.265625 -6.03125 8.265625 -7.910156 C 8.265625 -8.507812 8.132812 -9.027344 7.875 -9.476562 C 7.613281 -9.921875 7.296875 -10.238281 6.886719 -10.460938 C 6.476562 -10.683594 6.050781 -10.832031 5.640625 -10.925781 C 5.230469 -11.019531 4.800781 -11.074219 4.375 -11.074219 C 3.332031 -11.074219 2.4375 -10.945312 1.730469 -10.703125 Z M 2.960938 -0.835938 C 2.960938 -0.578125 3.054688 -0.355469 3.238281 -0.167969 C 3.425781 0.0195312 3.648438 0.113281 3.910156 0.113281 C 4.167969 0.113281 4.394531 0.0195312 4.578125 -0.167969 C 4.765625 -0.355469 4.859375 -0.578125 4.859375 -0.835938 C 4.859375 -1.097656 4.765625 -1.320312 4.578125 -1.507812 C 4.394531 -1.695312 4.167969 -1.785156 3.910156 -1.785156 C 3.648438 -1.785156 3.425781 -1.695312 3.238281 -1.507812 C 3.054688 -1.320312 2.960938 -1.097656 2.960938 -0.835938 Z M 2.960938 -0.835938 "/></g></g></g></svg>